<?xml version="1.0" encoding="UTF-8" standalone="no"?>
<svg
   xmlns:dc="http://purl.org/dc/elements/1.1/"
   xmlns:cc="http://creativecommons.org/ns#"
   xmlns:rdf="http://www.w3.org/1999/02/22-rdf-syntax-ns#"
   xmlns:svg="http://www.w3.org/2000/svg"
   xmlns="http://www.w3.org/2000/svg"
   id="svg1083"
   version="1.1"
   viewBox="0 0 63.499999 63.500002"
   height="240"
   width="240">
  <title
     id="title1133">About Icon</title>
  <defs
     id="defs1077" />
  <metadata
     id="metadata1080">
    <rdf:RDF>
      <cc:Work
         rdf:about="">
        <dc:format>image/svg+xml</dc:format>
        <dc:type
           rdf:resource="http://purl.org/dc/dcmitype/StillImage" />
        <dc:title>About Icon</dc:title>
      </cc:Work>
    </rdf:RDF>
  </metadata>
  <path
     d="M 31.750001,5.2916666 A 26.458334,26.458334 0 0 0 5.2916667,31.750001 26.458334,26.458334 0 0 0 31.750001,58.208334 26.458334,26.458334 0 0 0 58.208334,31.750001 26.458334,26.458334 0 0 0 31.750001,5.2916666 Z M 31.578953,18.520834 a 2.6458336,2.6458336 0 0 1 5.29e-4,0 2.6458336,2.6458336 0 0 1 0.0047,0 2.6458336,2.6458336 0 0 1 2.64579,2.645833 2.6458336,2.6458336 0 0 1 -2.645833,2.645833 2.6458336,2.6458336 0 0 1 -2.645834,-2.645833 2.6458336,2.6458336 0 0 1 2.640666,-2.645833 z m 0.171048,10.583333 c 1.465791,0 2.645833,1.180042 2.645833,2.645834 v 10.583333 c 0,1.465792 -1.180042,2.645833 -2.645833,2.645833 -1.465792,0 -2.645834,-1.180041 -2.645834,-2.645833 V 31.750001 c 0,-1.465792 1.180042,-2.645834 2.645834,-2.645834 z"
     style="display:inline;opacity:0.996;fill:#000000;stroke:none;stroke-width:0.264583;filter:url(#filter2076)"
     id="path1133" />
</svg>
