<?xml version="1.0" encoding="UTF-8" standalone="no"?>
<svg
   xmlns:dc="http://purl.org/dc/elements/1.1/"
   xmlns:cc="http://creativecommons.org/ns#"
   xmlns:rdf="http://www.w3.org/1999/02/22-rdf-syntax-ns#"
   xmlns:svg="http://www.w3.org/2000/svg"
   xmlns="http://www.w3.org/2000/svg"
   xmlns:sodipodi="http://sodipodi.sourceforge.net/DTD/sodipodi-0.dtd"
   xmlns:inkscape="http://www.inkscape.org/namespaces/inkscape"
   inkscape:version="1.0 (4035a4fb49, 2020-05-01)"
   sodipodi:docname="Add.svg"
   width="240"
   height="240"
   viewBox="0 0 63.499999 63.500002"
   version="1.1"
   id="svg1083">
  <sodipodi:namedview
     inkscape:current-layer="svg1083"
     inkscape:window-maximized="1"
     inkscape:window-y="0"
     inkscape:window-x="-8"
     inkscape:cy="111.93015"
     inkscape:cx="121.75432"
     inkscape:zoom="2.5043365"
     showgrid="false"
     id="namedview7"
     inkscape:window-height="1017"
     inkscape:window-width="1920"
     inkscape:pageshadow="2"
     inkscape:pageopacity="0"
     guidetolerance="10"
     gridtolerance="10"
     objecttolerance="10"
     borderopacity="1"
     bordercolor="#666666"
     pagecolor="#ffffff" />
  <defs
     id="defs1077" />
  <metadata
     id="metadata1080">
    <rdf:RDF>
      <cc:Work
         rdf:about="">
        <dc:format>image/svg+xml</dc:format>
        <dc:type
           rdf:resource="http://purl.org/dc/dcmitype/StillImage" />
        <dc:title></dc:title>
      </cc:Work>
    </rdf:RDF>
  </metadata>
  <path
     id="path1073"
     style="opacity:0.996;fill:#000000;stroke-width:0.264583"
     d="M 31.750001,5.2916666 A 26.458334,26.458334 0 0 0 5.2916669,31.750001 26.458334,26.458334 0 0 0 31.750001,58.208334 26.458334,26.458334 0 0 0 58.208334,31.750001 26.458334,26.458334 0 0 0 31.750001,5.2916666 Z m 0,13.2291674 c 1.465791,0 2.645833,1.180041 2.645833,2.645833 v 7.9375 h 7.9375 c 1.465792,0 2.645833,1.180042 2.645833,2.645834 0,1.465791 -1.180041,2.645833 -2.645833,2.645833 h -7.9375 v 7.9375 c 0,1.465792 -1.180042,2.645833 -2.645833,2.645833 -1.465792,0 -2.645834,-1.180041 -2.645834,-2.645833 v -7.9375 h -7.9375 c -1.465792,0 -2.645833,-1.180042 -2.645833,-2.645833 0,-1.465792 1.180041,-2.645834 2.645833,-2.645834 h 7.9375 v -7.9375 c 0,-1.465792 1.180042,-2.645833 2.645834,-2.645833 z" />
</svg>
