<?xml version="1.0" encoding="UTF-8" standalone="no"?>
<svg
   xmlns:dc="http://purl.org/dc/elements/1.1/"
   xmlns:cc="http://creativecommons.org/ns#"
   xmlns:rdf="http://www.w3.org/1999/02/22-rdf-syntax-ns#"
   xmlns:svg="http://www.w3.org/2000/svg"
   xmlns="http://www.w3.org/2000/svg"
   xmlns:sodipodi="http://sodipodi.sourceforge.net/DTD/sodipodi-0.dtd"
   xmlns:inkscape="http://www.inkscape.org/namespaces/inkscape"
   id="svg1083"
   version="1.1"
   viewBox="0 0 63.499999 63.500002"
   height="240"
   width="240"
   sodipodi:docname="Chain_Link.svg"
   inkscape:version="1.0 (4035a4fb49, 2020-05-01)">
  <sodipodi:namedview
     inkscape:document-rotation="0"
     pagecolor="#ffffff"
     bordercolor="#666666"
     borderopacity="1"
     objecttolerance="10"
     gridtolerance="10"
     guidetolerance="10"
     inkscape:pageopacity="0"
     inkscape:pageshadow="2"
     inkscape:window-width="1920"
     inkscape:window-height="1017"
     id="namedview16"
     showgrid="false"
     inkscape:zoom="1.7708334"
     inkscape:cx="73.086873"
     inkscape:cy="127.01451"
     inkscape:window-x="-8"
     inkscape:window-y="0"
     inkscape:window-maximized="1"
     inkscape:current-layer="g4717" />
  <defs
     id="defs1077" />
  <metadata
     id="metadata1080">
    <rdf:RDF>
      <cc:Work
         rdf:about="">
        <dc:format>image/svg+xml</dc:format>
        <dc:type
           rdf:resource="http://purl.org/dc/dcmitype/StillImage" />
        <dc:title />
      </cc:Work>
    </rdf:RDF>
  </metadata>
  <g
     id="layer1">
    <g
       id="g4717"
       transform="matrix(0.63489707,-0.63489707,0.63489707,0.63489707,-15.705249,24.192135)">
      <path
         d="M 60.846992,31.33715 C 60.711205,31.201364 60.52318,31.117795 60.315085,31.117794 l -38.196296,1e-6 c -0.416185,0 -0.751261,0.335073 -0.751262,0.751261 l 4.09e-4,0.317027 -1.834202,4.08e-4 c -0.178367,0 -0.321911,0.143544 -0.321911,0.32191 0,0.178367 0.143544,0.321911 0.321911,0.321911 h 1.833793 v 1.502523 h -1.833793 c -0.178367,-1e-6 -0.32191,0.143544 -0.321911,0.32191 1e-6,0.178367 0.143545,0.321911 0.321911,0.321911 h 1.833794 l -1e-6,1.502523 h -1.833793 c -0.178367,-1e-6 -0.32191,0.143544 -0.321911,0.32191 0,0.178366 0.143545,0.321911 0.321911,0.321911 h 1.833794 l 4.07e-4,0.755738 c -10e-7,0.416188 0.335076,0.751261 0.751261,0.751261 h 38.196297 c 0.416186,-10e-7 0.751259,-0.335075 0.751261,-0.751261 l -4.08e-4,-6.009683 c 10e-7,-0.208093 -0.08357,-0.396118 -0.219354,-0.531905 z m -2.37628,2.40721 a 1.6098017,1.6098017 0 0 1 0.464754,1.131367 1.6098017,1.6098017 0 0 1 -1.602228,1.609555 1.6098017,1.6098017 0 0 1 -0.0077,4.07e-4 1.6098017,1.6098017 0 0 1 -1.609961,-1.609961 1.6098017,1.6098017 0 0 1 1.601822,-1.609962 1.6098017,1.6098017 0 0 1 0.0081,0 1.6098017,1.6098017 0 0 1 1.145207,0.478594 z m -5.368711,-10e-7 a 1.6098017,1.6098017 0 0 1 0.464351,1.130962 1.6098017,1.6098017 0 0 1 -1.601823,1.609962 1.6098017,1.6098017 0 0 1 -4.07e-4,4.07e-4 1.6098017,1.6098017 0 0 1 -0.0077,-4.07e-4 1.6098017,1.6098017 0 0 1 -1.609554,-1.609555 1.6098017,1.6098017 0 0 1 1.601822,-1.609961 1.6098017,1.6098017 0 0 1 0.0081,0 1.6098017,1.6098017 0 0 1 1.145204,0.478592 z m -5.349988,0 a 1.6098017,1.6098017 0 0 1 0.464351,1.130962 1.6098017,1.6098017 0 0 1 -1.601823,1.609962 1.6098017,1.6098017 0 0 1 -4.07e-4,4.07e-4 1.6098017,1.6098017 0 0 1 -0.0077,-4.07e-4 1.6098017,1.6098017 0 0 1 -1.609555,-1.609555 1.6098017,1.6098017 0 0 1 1.601823,-1.609961 1.6098017,1.6098017 0 0 1 0.0081,0 1.6098017,1.6098017 0 0 1 1.145204,0.478592 z m -5.393125,10e-7 a 1.6098017,1.6098017 0 0 1 0.464348,1.130961 1.6098017,1.6098017 0 0 1 -1.601822,1.609961 1.6098017,1.6098017 0 0 1 -4.08e-4,4.07e-4 1.6098017,1.6098017 0 0 1 -0.0077,-4.07e-4 1.6098017,1.6098017 0 0 1 -1.609554,-1.609554 1.6098017,1.6098017 0 0 1 1.601822,-1.609962 1.6098017,1.6098017 0 0 1 0.0081,0 1.6098017,1.6098017 0 0 1 1.145207,0.478594 z m 11.333216,11.732044 a 6.2603394,6.2603394 0 0 0 -4.43065,-1.83827 l -13.772986,4.07e-4 2e-6,-2.504475 -7.512205,3.756713 7.512203,3.755899 4.08e-4,-2.504069 13.772578,10e-7 a 3.7562036,3.7562036 0 0 1 3.756305,3.756305 3.7562036,3.7562036 0 0 1 -3.756306,3.756306 l -2.504067,-4.06e-4 v 2.504472 l 2.504069,-4.04e-4 a 6.2603394,6.2603394 0 0 0 6.260374,-6.260374 6.2603394,6.2603394 0 0 0 -1.829725,-4.422105 z M 37.04634,33.74436 a 1.6098017,1.6098017 0 0 1 0.464756,1.131368 1.6098017,1.6098017 0 0 1 -1.601822,1.609962 1.6098017,1.6098017 0 0 1 -4.06e-4,-4.07e-4 1.6098017,1.6098017 0 0 1 -0.0077,4.07e-4 1.6098017,1.6098017 0 0 1 -1.609963,-1.609963 1.6098017,1.6098017 0 0 1 1.601822,-1.609961 1.6098017,1.6098017 0 0 1 0.0081,-10e-7 1.6098017,1.6098017 0 0 1 1.145207,0.478595 z m -5.419174,-10e-7 a 1.6098016,1.6098016 0 0 1 0.464351,1.130962 1.6098016,1.6098016 0 0 1 -1.601824,1.609962 1.6098016,1.6098016 0 0 1 -4.06e-4,4.07e-4 1.6098016,1.6098016 0 0 1 -0.0077,-4.07e-4 1.6098016,1.6098016 0 0 1 -1.609555,-1.609555 1.6098016,1.6098016 0 0 1 1.601823,-1.609962 1.6098016,1.6098016 0 0 1 0.0081,0 1.6098016,1.6098016 0 0 1 1.145205,0.478593 z M 45.285385,51.370507 C 45.149599,51.23472 44.961981,51.150744 44.753887,51.150746 H 6.5575913 c -0.4161844,0 -0.7512608,0.335074 -0.7512614,0.751262 l 1.7e-6,0.317432 H 3.9725385 c -0.1783664,0 -0.3219124,0.143546 -0.3219126,0.321913 -2e-7,0.178366 0.1435445,0.321911 0.3219109,0.321911 h 1.8337931 l 1.9e-6,1.50252 -1.8337954,2e-6 c -0.1783641,-2e-6 -0.3219097,0.143545 -0.3219105,0.32191 4e-7,0.178367 0.1435447,0.321912 0.3219109,0.321911 l 1.8337933,10e-7 -2e-7,1.502522 H 3.9725366 c -0.1783664,0 -0.3223166,0.14395 -0.3223168,0.322317 -2e-7,0.178366 0.1435445,0.321911 0.3219109,0.321911 l 1.8341994,-4.07e-4 8e-7,0.756145 c -2e-7,0.416188 0.3350767,0.75126 0.751261,0.75126 H 44.753887 c 0.416188,0 0.751261,-0.335073 0.751261,-0.751262 v -6.010086 c 2e-6,-0.208095 -0.08397,-0.395713 -0.219763,-0.531501 z M 26.27677,33.743953 a 1.6098016,1.6098016 0 0 1 0.46435,1.131775 1.6098016,1.6098016 0 0 1 -1.601415,1.609555 1.6098016,1.6098016 0 0 1 -0.0081,0 1.6098016,1.6098016 0 0 1 -1.609555,-1.609555 1.6098016,1.6098016 0 0 1 1.601822,-1.609961 1.6098016,1.6098016 0 0 1 0.0077,4.07e-4 1.6098016,1.6098016 0 0 1 1.145204,0.477779 z m 16.632743,20.033356 a 1.6098017,1.6098017 0 0 1 0.464756,1.131369 1.6098017,1.6098017 0 0 1 -1.602228,1.609555 1.6098017,1.6098017 0 0 1 -4.09e-4,4.08e-4 1.6098017,1.6098017 0 0 1 -0.0073,-2e-6 1.6098017,1.6098017 0 0 1 -1.609961,-1.609961 1.6098017,1.6098017 0 0 1 1.601822,-1.609961 1.6098017,1.6098017 0 0 1 0.0081,0 1.6098017,1.6098017 0 0 1 1.145205,0.478592 z m -5.369117,4.09e-4 a 1.6098017,1.6098017 0 0 1 0.464351,1.130962 1.6098017,1.6098017 0 0 1 -1.601822,1.609961 1.6098017,1.6098017 0 0 1 -0.0077,-4.06e-4 1.6098017,1.6098017 0 0 1 -1.609555,-1.609555 1.6098017,1.6098017 0 0 1 1.601416,-1.609554 1.6098017,1.6098017 0 0 1 0.0081,0 1.6098017,1.6098017 0 0 1 1.145204,0.478592 z M 17.959586,34.8741 l -7.512611,-3.756306 4.08e-4,2.504068 a 6.2603394,6.2603394 0 0 0 -6.2603731,6.260373 6.2603394,6.2603394 0 0 0 6.2603731,6.260374 H 25.47179 l 4.09e-4,-2.504068 -15.024817,-4.06e-4 A 3.7562036,3.7562036 0 0 1 6.6910769,39.881829 3.7562036,3.7562036 0 0 1 10.446975,36.125931 l 4.07e-4,2.504067 z m 14.230416,18.903212 a 1.6098017,1.6098017 0 0 1 0.464757,1.131368 1.6098017,1.6098017 0 0 1 -1.601822,1.609961 1.6098017,1.6098017 0 0 1 -4.09e-4,-4.08e-4 1.6098017,1.6098017 0 0 1 -0.0077,4.08e-4 1.6098017,1.6098017 0 0 1 -1.609963,-1.609963 1.6098017,1.6098017 0 0 1 1.602228,-1.609554 1.6098017,1.6098017 0 0 1 0.0077,-4.07e-4 1.6098017,1.6098017 0 0 1 1.145206,0.478595 z m -5.392314,-3e-6 a 1.6098017,1.6098017 0 0 1 0.464351,1.131776 1.6098017,1.6098017 0 0 1 -1.601823,1.609148 1.6098017,1.6098017 0 0 1 -4.08e-4,4.08e-4 1.6098017,1.6098017 0 0 1 -0.0077,-4.08e-4 1.6098017,1.6098017 0 0 1 -1.609555,-1.609555 1.6098017,1.6098017 0 0 1 1.601822,-1.609961 1.6098017,1.6098017 0 0 1 0.0077,4.07e-4 1.6098017,1.6098017 0 0 1 1.14561,0.478185 z m -5.312546,3e-6 a 1.6098017,1.6098017 0 0 1 0.464756,1.131368 1.6098017,1.6098017 0 0 1 -1.601822,1.609961 1.6098017,1.6098017 0 0 1 -8.14e-4,-2e-6 1.6098017,1.6098017 0 0 1 -0.0073,2e-6 1.6098017,1.6098017 0 0 1 -1.609963,-1.609963 1.6098017,1.6098017 0 0 1 1.601823,-1.609961 1.6098017,1.6098017 0 0 1 0.0081,0 1.6098017,1.6098017 0 0 1 1.145207,0.478595 z m -5.419987,0 a 1.6098016,1.6098016 0 0 1 0.464756,1.131368 1.6098016,1.6098016 0 0 1 -1.601822,1.609961 1.6098016,1.6098016 0 0 1 -4.08e-4,-4.08e-4 1.6098016,1.6098016 0 0 1 -0.0077,4.08e-4 1.6098016,1.6098016 0 0 1 -1.609963,-1.609963 1.6098016,1.6098016 0 0 1 1.602231,-1.609552 1.6098016,1.6098016 0 0 1 0.0081,0 1.6098016,1.6098016 0 0 1 1.144798,0.478186 z m -5.349989,-1e-6 a 1.6098016,1.6098016 0 0 1 0.464757,1.131369 1.6098016,1.6098016 0 0 1 -1.6018221,1.609961 1.6098016,1.6098016 0 0 1 -0.00814,-1e-6 1.6098016,1.6098016 0 0 1 -1.6099616,-1.609961 1.6098016,1.6098016 0 0 1 1.6022289,-1.609554 1.6098016,1.6098016 0 0 1 0.00773,-4.07e-4 1.6098016,1.6098016 0 0 1 1.1452048,0.478593 z"
         style="opacity:0.996;fill:#000000;stroke-width:0.665905"
         id="rect4571" />
    </g>
  </g>
</svg>
