<?xml version="1.0" encoding="UTF-8" standalone="no"?>
<svg
   xmlns:dc="http://purl.org/dc/elements/1.1/"
   xmlns:cc="http://creativecommons.org/ns#"
   xmlns:rdf="http://www.w3.org/1999/02/22-rdf-syntax-ns#"
   xmlns:svg="http://www.w3.org/2000/svg"
   xmlns="http://www.w3.org/2000/svg"
   xmlns:sodipodi="http://sodipodi.sourceforge.net/DTD/sodipodi-0.dtd"
   xmlns:inkscape="http://www.inkscape.org/namespaces/inkscape"
   inkscape:version="1.0 (4035a4fb49, 2020-05-01)"
   sodipodi:docname="Color-Palette.svg"
   width="240"
   height="240"
   viewBox="0 0 63.499999 63.500002"
   version="1.1"
   id="svg1083">
  <sodipodi:namedview
     inkscape:current-layer="svg1083"
     inkscape:window-maximized="1"
     inkscape:window-y="0"
     inkscape:window-x="-8"
     inkscape:cy="115.20487"
     inkscape:cx="83.978039"
     inkscape:zoom="2.5043365"
     showgrid="false"
     id="namedview7"
     inkscape:window-height="1017"
     inkscape:window-width="1920"
     inkscape:pageshadow="2"
     inkscape:pageopacity="0"
     guidetolerance="10"
     gridtolerance="10"
     objecttolerance="10"
     borderopacity="1"
     bordercolor="#666666"
     pagecolor="#ffffff" />
  <defs
     id="defs1077" />
  <metadata
     id="metadata1080">
    <rdf:RDF>
      <cc:Work
         rdf:about="">
        <dc:format>image/svg+xml</dc:format>
        <dc:type
           rdf:resource="http://purl.org/dc/dcmitype/StillImage" />
        <dc:title />
      </cc:Work>
    </rdf:RDF>
  </metadata>
  <path
     id="path1404"
     style="opacity:0.996;fill:#000000;stroke:none;stroke-width:0.933132"
     d="M 31.673189,5.2929582 C 21.299827,5.1849032 11.315393,11.870458 7.3941281,21.463151 c -2.231127,5.284844 -2.615901,11.291274 -1.488058,16.878422 0.782101,4.20842 4.0980149,-0.133839 5.1988619,-1.849257 2.332666,-2.880485 4.783855,-6.544701 8.775908,-7.016364 6.98829,-0.330511 13.522677,5.45652 14.076566,12.42495 0.713814,3.684767 -2.304507,6.522712 -4.927414,8.567578 -1.966934,1.690143 -4.434248,2.892859 -5.953218,5.041689 -0.339094,2.511261 3.480401,2.222489 5.174273,2.522074 7.629097,0.864719 15.626176,-1.467532 21.287209,-6.727169 C 57.160505,44.553326 60.158932,33.206548 56.912654,23.561273 53.792565,13.574247 44.246999,6.0318632 33.796598,5.3701742 c -0.706467,-0.05388 -1.414907,-0.07921 -2.123409,-0.07722 z m -4.077654,4.029023 a 4.4061489,4.4067442 0 0 1 0.01279,0 4.4061489,4.4067442 0 0 1 4.40615,4.4067438 4.4061489,4.4067442 0 0 1 -4.40615,4.406744 4.4061489,4.4067442 0 0 1 -4.406149,-4.406744 4.4061489,4.4067442 0 0 1 4.393362,-4.4067438 z m 13.847897,3.2735818 a 4.4061489,4.4067442 0 0 1 0.01278,0 4.4061489,4.4067442 0 0 1 4.406149,4.406744 4.4061489,4.4067442 0 0 1 -4.406149,4.406744 4.4061489,4.4067442 0 0 1 -4.406151,-4.406744 4.4061489,4.4067442 0 0 1 4.393366,-4.406744 z M 16.517217,16.8764 a 4.4061489,4.4067442 0 0 1 0.01279,0 4.4061489,4.4067442 0 0 1 4.406149,4.406744 4.4061489,4.4067442 0 0 1 -4.406149,4.406744 4.4061489,4.4067442 0 0 1 -4.406149,-4.406744 4.4061489,4.4067442 0 0 1 4.393362,-4.406744 z m 33.738515,7.302604 a 4.4061489,4.4067442 0 0 1 0.01278,0 4.4061489,4.4067442 0 0 1 4.406149,4.406745 4.4061489,4.4067442 0 0 1 -4.406138,4.406743 4.4061489,4.4067442 0 0 1 -4.406149,-4.406743 4.4061489,4.4067442 0 0 1 4.393364,-4.406745 z m -3.7767,12.842513 a 4.4061489,4.4067442 0 0 1 0.01278,0 4.4061489,4.4067442 0 0 1 4.406149,4.406744 4.4061489,4.4067442 0 0 1 -4.406149,4.406746 4.4061489,4.4067442 0 0 1 -4.406151,-4.406746 4.4061489,4.4067442 0 0 1 4.393364,-4.406744 z" />
</svg>
