<?xml version="1.0" encoding="UTF-8" standalone="no"?>
<svg
   xmlns:dc="http://purl.org/dc/elements/1.1/"
   xmlns:cc="http://creativecommons.org/ns#"
   xmlns:rdf="http://www.w3.org/1999/02/22-rdf-syntax-ns#"
   xmlns:svg="http://www.w3.org/2000/svg"
   xmlns="http://www.w3.org/2000/svg"
   width="240"
   height="240"
   viewBox="0 0 63.499999 63.500002"
   version="1.1"
   id="svg1083">
  <defs
     id="defs1077" />
  <metadata
     id="metadata1080">
    <rdf:RDF>
      <cc:Work
         rdf:about="">
        <dc:format>image/svg+xml</dc:format>
        <dc:type
           rdf:resource="http://purl.org/dc/dcmitype/StillImage" />
        <dc:title></dc:title>
      </cc:Work>
    </rdf:RDF>
  </metadata>
  <g
     id="layer1">
    <path
       id="rect2284"
       style="opacity:0.996;fill:#000000;stroke-width:0.450535"
       d="M 42.295108,7.9375113 A 7.9375009,7.9375009 0 0 0 34.850085,13.229178 H 7.9375153 a 2.6458334,2.6458334 0 0 0 -0.0052,0 2.6458334,2.6458334 0 0 0 -2.640663,2.645834 2.6458334,2.6458334 0 0 0 2.645833,2.645832 2.6458334,2.6458334 0 0 0 0.0052,0 H 34.850085 a 7.9375009,7.9375009 0 0 0 7.483263,5.291667 7.9375009,7.9375009 0 0 0 7.483263,-5.291667 h 5.745904 a 2.6458334,2.6458334 0 0 0 2.645833,-2.645832 2.6458334,2.6458334 0 0 0 -2.645833,-2.645834 h -0.0052 -5.740737 a 7.9375009,7.9375009 0 0 0 -7.48323,-5.2916667 7.9375009,7.9375009 0 0 0 -0.03824,0 z m 0.0279,5.2916667 a 2.6458349,2.6458349 0 0 1 0.0052,0 2.6458349,2.6458349 0 0 1 0.0052,0 2.6458349,2.6458349 0 0 1 0.06511,0.001 2.6458349,2.6458349 0 0 1 0.0052,0 2.6458349,2.6458349 0 0 1 0.06511,0.0026 2.6458349,2.6458349 0 0 1 2.5053,2.642209 2.6458349,2.6458349 0 0 1 -2.500106,2.641698 2.6458349,2.6458349 0 0 1 -0.135393,0.0041 2.6458349,2.6458349 0 0 1 -0.0052,0 2.6458349,2.6458349 0 0 1 -0.0052,0 2.6458349,2.6458349 0 0 1 -0.06511,-0.001 2.6458349,2.6458349 0 0 1 -0.0052,0 2.6458349,2.6458349 0 0 1 -0.06511,-0.0026 2.6458349,2.6458349 0 0 1 -2.505298,-2.642208 2.6458349,2.6458349 0 0 1 2.500107,-2.641699 2.6458349,2.6458349 0 0 1 0.135392,-0.0041 z M 21.128442,23.812511 a 7.9375011,7.9375011 0 0 0 -7.445024,5.291667 H 7.9375153 a 2.6458334,2.6458334 0 0 0 -0.0052,0 2.6458334,2.6458334 0 0 0 -2.640663,2.645832 2.6458334,2.6458334 0 0 0 2.645833,2.645835 2.6458334,2.6458334 0 0 0 0.0052,0 H 13.68342 a 7.9375011,7.9375011 0 0 0 7.483262,5.291667 7.9375011,7.9375011 0 0 0 7.483263,-5.291667 h 26.91257 a 2.6458334,2.6458334 0 0 0 2.645833,-2.645835 2.6458334,2.6458334 0 0 0 -2.645833,-2.645832 h -0.0052 -26.907403 a 7.9375011,7.9375011 0 0 0 -7.483263,-5.291667 7.9375011,7.9375011 0 0 0 -0.03824,0 z m 0.02791,5.291667 a 2.6458349,2.6458349 0 0 1 0.0052,0 2.6458349,2.6458349 0 0 1 0.0052,0 2.6458349,2.6458349 0 0 1 0.06511,0.0011 2.6458349,2.6458349 0 0 1 0.0052,0 2.6458349,2.6458349 0 0 1 0.06511,0.0026 2.6458349,2.6458349 0 0 1 2.505274,2.642129 2.6458349,2.6458349 0 0 1 -2.500106,2.641701 2.6458349,2.6458349 0 0 1 -0.135393,0.0041 2.6458349,2.6458349 0 0 1 -0.0052,0 2.6458349,2.6458349 0 0 1 -0.0052,0 2.6458349,2.6458349 0 0 1 -0.06511,-0.0011 2.6458349,2.6458349 0 0 1 -0.0052,0 2.6458349,2.6458349 0 0 1 -0.06511,-0.0026 2.6458349,2.6458349 0 0 1 -2.505274,-2.642129 2.6458349,2.6458349 0 0 1 2.500106,-2.6417 2.6458349,2.6458349 0 0 1 0.135392,-0.0041 z M 31.71178,39.687512 a 7.9375011,7.9375011 0 0 0 -7.445024,5.291667 H 7.9375153 a 2.6458334,2.6458334 0 0 0 -0.0052,0 2.6458334,2.6458334 0 0 0 -2.640663,2.645833 2.6458334,2.6458334 0 0 0 2.645833,2.645833 2.6458334,2.6458334 0 0 0 0.0052,0 H 24.266751 a 7.9375011,7.9375011 0 0 0 7.483264,5.291667 7.9375011,7.9375011 0 0 0 7.483263,-5.291667 h 16.329237 a 2.6458334,2.6458334 0 0 0 2.645833,-2.645833 2.6458334,2.6458334 0 0 0 -2.645833,-2.645833 h -0.0052 -16.32407 a 7.9375011,7.9375011 0 0 0 -7.483264,-5.291667 7.9375011,7.9375011 0 0 0 -0.03824,0 z m 0.02791,5.291667 a 2.6458349,2.6458349 0 0 1 0.0052,0 2.6458349,2.6458349 0 0 1 0.0052,0 2.6458349,2.6458349 0 0 1 0.06511,0.0011 2.6458349,2.6458349 0 0 1 0.0052,0 2.6458349,2.6458349 0 0 1 0.06511,0.0026 2.6458349,2.6458349 0 0 1 2.5053,2.642129 2.6458349,2.6458349 0 0 1 -2.500107,2.641701 2.6458349,2.6458349 0 0 1 -0.135392,0.0041 2.6458349,2.6458349 0 0 1 -0.0052,0 2.6458349,2.6458349 0 0 1 -0.0052,0 2.6458349,2.6458349 0 0 1 -0.06511,-0.0011 2.6458349,2.6458349 0 0 1 -0.0052,0 2.6458349,2.6458349 0 0 1 -0.06511,-0.0026 2.6458349,2.6458349 0 0 1 -2.505297,-2.642124 2.6458349,2.6458349 0 0 1 2.500106,-2.641701 2.6458349,2.6458349 0 0 1 0.135393,-0.0041 z" />
  </g>
</svg>
