<?xml version="1.0" encoding="UTF-8" standalone="no"?>
<svg
   xmlns:dc="http://purl.org/dc/elements/1.1/"
   xmlns:cc="http://creativecommons.org/ns#"
   xmlns:rdf="http://www.w3.org/1999/02/22-rdf-syntax-ns#"
   xmlns:svg="http://www.w3.org/2000/svg"
   xmlns="http://www.w3.org/2000/svg"
   width="240"
   height="240"
   viewBox="0 0 63.499999 63.500002"
   version="1.1"
   id="svg1083">
  <defs
     id="defs1077" />
  <metadata
     id="metadata1080">
    <rdf:RDF>
      <cc:Work
         rdf:about="">
        <dc:format>image/svg+xml</dc:format>
        <dc:type
           rdf:resource="http://purl.org/dc/dcmitype/StillImage" />
        <dc:title></dc:title>
      </cc:Work>
    </rdf:RDF>
  </metadata>
  <g
     id="layer1">
    <path
       d="m 7.8281843,26.763622 c -0.5524879,0 -0.9972757,0.444785 -0.9972757,0.997276 v 0.421283 H 4.3961535 c -0.2367814,0 -0.4274038,0.190622 -0.4274038,0.427404 0,0.236782 0.1906224,0.427404 0.4274038,0.427404 H 6.8309086 V 31.03154 H 4.3961535 c -0.2367814,0 -0.4274038,0.190622 -0.4274038,0.427404 0,0.236782 0.1906224,0.427404 0.4274038,0.427404 h 2.4347551 v 1.994551 H 4.3961535 c -0.2367814,0 -0.4274038,0.190622 -0.4274038,0.427404 0,0.236782 0.1906224,0.427404 0.4274038,0.427404 h 2.4347551 v 1.003396 c 0,0.552491 0.4447878,0.997276 0.9972757,0.997276 H 58.533975 c 0.552491,0 0.997276,-0.444785 0.997276,-0.997276 v -7.978205 c 0,-0.552491 -0.444785,-0.997276 -0.997276,-0.997276 z m 3.9885457,2.851587 a 2.1370193,2.1370193 0 0 1 0.01057,0 2.1370193,2.1370193 0 0 1 2.137019,2.13702 2.1370193,2.1370193 0 0 1 -2.126445,2.137019 2.1370193,2.1370193 0 0 1 -0.01057,0 2.1370193,2.1370193 0 0 1 -2.1370192,-2.137019 2.1370193,2.1370193 0 0 1 2.1264452,-2.13702 z m 7.10225,0 a 2.1370193,2.1370193 0 0 1 0.01057,0 2.1370193,2.1370193 0 0 1 2.137019,2.13702 2.1370193,2.1370193 0 0 1 -2.126445,2.137019 2.1370193,2.1370193 0 0 1 -5.57e-4,0 2.1370193,2.1370193 0 0 1 -0.01002,0 2.1370193,2.1370193 0 0 1 -2.137019,-2.137019 2.1370193,2.1370193 0 0 1 2.126445,-2.13702 z m 7.194632,0 a 2.1370194,2.1370194 0 0 1 0.01057,0 2.1370194,2.1370194 0 0 1 2.137019,2.13702 2.1370194,2.1370194 0 0 1 -2.126445,2.137019 2.1370194,2.1370194 0 0 1 -5.56e-4,0 2.1370194,2.1370194 0 0 1 -0.01002,0 2.1370194,2.1370194 0 0 1 -2.13702,-2.137019 2.1370194,2.1370194 0 0 1 2.126446,-2.13702 z m 7.052163,0 a 2.1370194,2.1370194 0 0 1 0.01057,0 2.1370194,2.1370194 0 0 1 2.13702,2.13702 2.1370194,2.1370194 0 0 1 -2.126446,2.137019 2.1370194,2.1370194 0 0 1 -5.55e-4,0 2.1370194,2.1370194 0 0 1 -0.01002,0 2.1370194,2.1370194 0 0 1 -2.137019,-2.137019 2.1370194,2.1370194 0 0 1 2.126445,-2.13702 z m 7.159015,0 a 2.1370194,2.1370194 0 0 1 0.01057,0 2.1370194,2.1370194 0 0 1 2.137019,2.13702 2.1370194,2.1370194 0 0 1 -2.126445,2.137019 2.1370194,2.1370194 0 0 1 -5.56e-4,0 2.1370194,2.1370194 0 0 1 -0.01002,0 2.1370194,2.1370194 0 0 1 -2.137019,-2.137019 2.1370194,2.1370194 0 0 1 2.126445,-2.13702 z m 7.10225,0 a 2.1370195,2.1370195 0 0 1 0.01057,0 2.1370195,2.1370195 0 0 1 2.137019,2.13702 2.1370195,2.1370195 0 0 1 -2.126445,2.137019 2.1370195,2.1370195 0 0 1 -5.56e-4,0 2.1370195,2.1370195 0 0 1 -0.01002,0 2.1370195,2.1370195 0 0 1 -2.13702,-2.137019 2.1370195,2.1370195 0 0 1 2.126446,-2.13702 z m 7.127292,0 a 2.1370195,2.1370195 0 0 1 0.01057,0 2.1370195,2.1370195 0 0 1 2.13702,2.13702 2.1370195,2.1370195 0 0 1 -2.126446,2.137019 2.1370195,2.1370195 0 0 1 -5.55e-4,0 2.1370195,2.1370195 0 0 1 -0.01002,0 2.1370195,2.1370195 0 0 1 -2.137019,-2.137019 2.1370195,2.1370195 0 0 1 2.126445,-2.13702 z"
       style="opacity:0.997;fill:#000000;fill-opacity:1;stroke:none;stroke-width:1.40564;stroke-miterlimit:4;stroke-dasharray:none"
       id="rect3113" />
  </g>
</svg>
