<?xml version="1.0" encoding="UTF-8" standalone="no"?>
<svg
   xmlns:dc="http://purl.org/dc/elements/1.1/"
   xmlns:cc="http://creativecommons.org/ns#"
   xmlns:rdf="http://www.w3.org/1999/02/22-rdf-syntax-ns#"
   xmlns:svg="http://www.w3.org/2000/svg"
   xmlns="http://www.w3.org/2000/svg"
   xmlns:sodipodi="http://sodipodi.sourceforge.net/DTD/sodipodi-0.dtd"
   xmlns:inkscape="http://www.inkscape.org/namespaces/inkscape"
   inkscape:version="1.0 (4035a4fb49, 2020-05-01)"
   sodipodi:docname="LED_Strip-Glowing.svg"
   width="240"
   height="240"
   viewBox="0 0 63.499999 63.500002"
   version="1.1"
   id="svg1083">
  <sodipodi:namedview
     inkscape:current-layer="svg1083"
     inkscape:window-maximized="1"
     inkscape:window-y="0"
     inkscape:window-x="-8"
     inkscape:cy="57.069233"
     inkscape:cx="13.900218"
     inkscape:zoom="1.7708333"
     showgrid="false"
     id="namedview16"
     inkscape:window-height="1017"
     inkscape:window-width="1920"
     inkscape:pageshadow="2"
     inkscape:pageopacity="0"
     guidetolerance="10"
     gridtolerance="10"
     objecttolerance="10"
     borderopacity="1"
     bordercolor="#666666"
     pagecolor="#ffffff" />
  <defs
     id="defs1077" />
  <metadata
     id="metadata1080">
    <rdf:RDF>
      <cc:Work
         rdf:about="">
        <dc:format>image/svg+xml</dc:format>
        <dc:type
           rdf:resource="http://purl.org/dc/dcmitype/StillImage" />
        <dc:title />
      </cc:Work>
    </rdf:RDF>
  </metadata>
  <path
     transform="scale(0.26458334)"
     d="M 119.5 70 C 118.392 70 117.5 70.892001 117.5 72 L 117.5 93 C 117.5 94.107999 118.392 95 119.5 95 L 120.5 95 C 121.608 95 122.5 94.107999 122.5 93 L 122.5 72 C 122.5 70.892001 121.608 70 120.5 70 L 119.5 70 z M 100.2793 71.955078 C 100.07323 71.944789 99.862935 71.975554 99.65625 72.050781 L 97.941406 72.673828 C 97.114666 72.974737 96.691279 73.884197 96.992188 74.710938 L 104.45703 95.21875 C 104.75794 96.045494 105.66545 96.466924 106.49219 96.166016 L 108.20703 95.542969 C 109.03377 95.24206 109.45716 94.334556 109.15625 93.507812 L 101.69141 73 C 101.46572 72.379945 100.89751 71.985944 100.2793 71.955078 z M 139.58594 72.042969 C 138.84763 72.079832 138.17187 72.548554 137.90234 73.289062 L 130.64844 93.21875 C 130.28907 94.206093 130.79391 95.289074 131.78125 95.648438 L 132.91602 96.060547 C 133.90336 96.41991 134.98829 95.915078 135.34766 94.927734 L 142.59961 75 C 142.95897 74.012655 142.45414 72.927723 141.4668 72.568359 L 140.33203 72.15625 C 140.0852 72.066409 139.83204 72.030681 139.58594 72.042969 z M 25 101.1543 L 25 138.8457 L 215 138.8457 L 215 101.1543 L 25 101.1543 z M 39.662109 111.93164 A 8.0769237 8.0769237 0 0 1 39.701172 111.93164 A 8.0769237 8.0769237 0 0 1 47.779297 120.00781 A 8.0769237 8.0769237 0 0 1 39.742188 128.08594 A 8.0769237 8.0769237 0 0 1 39.701172 128.08594 A 8.0769237 8.0769237 0 0 1 31.625 120.00781 A 8.0769237 8.0769237 0 0 1 39.662109 111.93164 z M 66.503906 111.93164 A 8.0769237 8.0769237 0 0 1 66.544922 111.93164 A 8.0769237 8.0769237 0 0 1 74.621094 120.00781 A 8.0769237 8.0769237 0 0 1 66.583984 128.08594 A 8.0769237 8.0769237 0 0 1 66.582031 128.08594 A 8.0769237 8.0769237 0 0 1 66.544922 128.08594 A 8.0769237 8.0769237 0 0 1 58.46875 120.00781 A 8.0769237 8.0769237 0 0 1 66.503906 111.93164 z M 93.697266 111.93164 A 8.076924 8.076924 0 0 1 93.736328 111.93164 A 8.076924 8.076924 0 0 1 101.81445 120.00781 A 8.076924 8.076924 0 0 1 93.777344 128.08594 A 8.076924 8.076924 0 0 1 93.775391 128.08594 A 8.076924 8.076924 0 0 1 93.736328 128.08594 A 8.076924 8.076924 0 0 1 85.660156 120.00781 A 8.076924 8.076924 0 0 1 93.697266 111.93164 z M 120.35156 111.93164 A 8.076924 8.076924 0 0 1 120.39062 111.93164 A 8.076924 8.076924 0 0 1 128.46875 120.00781 A 8.076924 8.076924 0 0 1 120.43164 128.08594 A 8.076924 8.076924 0 0 1 120.42969 128.08594 A 8.076924 8.076924 0 0 1 120.39062 128.08594 A 8.076924 8.076924 0 0 1 112.31445 120.00781 A 8.076924 8.076924 0 0 1 120.35156 111.93164 z M 147.4082 111.93164 A 8.076924 8.076924 0 0 1 147.44922 111.93164 A 8.076924 8.076924 0 0 1 155.52539 120.00781 A 8.076924 8.076924 0 0 1 147.48828 128.08594 A 8.076924 8.076924 0 0 1 147.48633 128.08594 A 8.076924 8.076924 0 0 1 147.44922 128.08594 A 8.076924 8.076924 0 0 1 139.37109 120.00781 A 8.076924 8.076924 0 0 1 147.4082 111.93164 z M 174.25195 111.93164 A 8.0769244 8.0769244 0 0 1 174.29102 111.93164 A 8.0769244 8.0769244 0 0 1 182.36914 120.00781 A 8.0769244 8.0769244 0 0 1 174.33203 128.08594 A 8.0769244 8.0769244 0 0 1 174.33008 128.08594 A 8.0769244 8.0769244 0 0 1 174.29102 128.08594 A 8.0769244 8.0769244 0 0 1 166.21484 120.00781 A 8.0769244 8.0769244 0 0 1 174.25195 111.93164 z M 201.18945 111.93164 A 8.0769244 8.0769244 0 0 1 201.23047 111.93164 A 8.0769244 8.0769244 0 0 1 209.30664 120.00781 A 8.0769244 8.0769244 0 0 1 201.26953 128.08594 A 8.0769244 8.0769244 0 0 1 201.26758 128.08594 A 8.0769244 8.0769244 0 0 1 201.23047 128.08594 A 8.0769244 8.0769244 0 0 1 193.15234 120.00781 A 8.0769244 8.0769244 0 0 1 201.18945 111.93164 z M 105.86719 143.73828 C 105.24898 143.76915 104.68271 144.16119 104.45703 144.78125 L 96.992188 165.28906 C 96.691279 166.1158 97.114666 167.02526 97.941406 167.32617 L 99.65625 167.94922 C 100.48299 168.25013 101.3905 167.82674 101.69141 167 L 109.15625 146.49219 C 109.45716 145.66545 109.03377 144.75794 108.20703 144.45703 L 106.49219 143.83398 C 106.2855 143.75876 106.07326 143.72799 105.86719 143.73828 z M 133.66211 143.82617 C 133.41601 143.81388 133.16285 143.84961 132.91602 143.93945 L 131.78125 144.35156 C 130.79391 144.71093 130.28907 145.7939 130.64844 146.78125 L 137.90234 166.71094 C 138.26171 167.69828 139.34469 168.20311 140.33203 167.84375 L 141.4668 167.43164 C 142.45414 167.07228 142.95897 165.98735 142.59961 165 L 135.34766 145.07227 C 135.07813 144.33176 134.40041 143.86303 133.66211 143.82617 z M 119.5 145 C 118.392 145 117.5 145.892 117.5 147 L 117.5 168 C 117.5 169.108 118.392 170 119.5 170 L 120.5 170 C 121.608 170 122.5 169.108 122.5 168 L 122.5 147 C 122.5 145.892 121.608 145 120.5 145 L 119.5 145 z "
     style="opacity:0.997;fill:#000000;fill-opacity:1;stroke:none;stroke-width:5.31265;stroke-miterlimit:4;stroke-dasharray:none"
     id="path907" />
</svg>
