<?xml version="1.0" encoding="UTF-8" standalone="no"?>
<svg
   xmlns:dc="http://purl.org/dc/elements/1.1/"
   xmlns:cc="http://creativecommons.org/ns#"
   xmlns:rdf="http://www.w3.org/1999/02/22-rdf-syntax-ns#"
   xmlns:svg="http://www.w3.org/2000/svg"
   xmlns="http://www.w3.org/2000/svg"
   width="240"
   height="240"
   viewBox="0 0 63.499999 63.500002"
   version="1.1"
   id="svg1083">
  <defs
     id="defs1077" />
  <metadata
     id="metadata1080">
    <rdf:RDF>
      <cc:Work
         rdf:about="">
        <dc:format>image/svg+xml</dc:format>
        <dc:type
           rdf:resource="http://purl.org/dc/dcmitype/StillImage" />
        <dc:title></dc:title>
      </cc:Work>
    </rdf:RDF>
  </metadata>
  <g
     id="layer1">
    <path
       id="path907"
       style="opacity:0.997;fill:#000000;fill-opacity:1;stroke:none;stroke-width:1.40564;stroke-miterlimit:4;stroke-dasharray:none"
       d="m 6.614583,26.763742 v 9.972516 h 50.270834 v -9.972516 z m 3.87935,2.851504 a 2.1370194,2.1370194 0 0 1 0.01033,0 2.1370194,2.1370194 0 0 1 2.137337,2.13682 2.1370194,2.1370194 0 0 1 -2.126485,2.137339 2.1370194,2.1370194 0 0 1 -0.01085,0 2.1370194,2.1370194 0 0 1 -2.13682,-2.137339 2.1370194,2.1370194 0 0 1 2.126485,-2.13682 z m 7.101892,0 a 2.1370194,2.1370194 0 0 1 0.01085,0 2.1370194,2.1370194 0 0 1 2.136821,2.13682 2.1370194,2.1370194 0 0 1 -2.126486,2.137339 2.1370194,2.1370194 0 0 1 -5.16e-4,0 2.1370194,2.1370194 0 0 1 -0.0098,0 2.1370194,2.1370194 0 0 1 -2.13682,-2.137339 2.1370194,2.1370194 0 0 1 2.125968,-2.13682 z m 7.19491,0 a 2.1370195,2.1370195 0 0 1 0.01033,0 2.1370195,2.1370195 0 0 1 2.137337,2.13682 2.1370195,2.1370195 0 0 1 -2.126485,2.137339 2.1370195,2.1370195 0 0 1 -5.16e-4,0 2.1370195,2.1370195 0 0 1 -0.01034,0 2.1370195,2.1370195 0 0 1 -2.13682,-2.137339 2.1370195,2.1370195 0 0 1 2.126485,-2.13682 z m 7.052282,0 a 2.1370195,2.1370195 0 0 1 0.01034,0 2.1370195,2.1370195 0 0 1 2.137338,2.13682 2.1370195,2.1370195 0 0 1 -2.126485,2.137339 2.1370195,2.1370195 0 0 1 -5.16e-4,0 2.1370195,2.1370195 0 0 1 -0.01034,0 2.1370195,2.1370195 0 0 1 -2.13682,-2.137339 2.1370195,2.1370195 0 0 1 2.126485,-2.13682 z m 7.158736,0 a 2.1370195,2.1370195 0 0 1 0.01085,0 2.1370195,2.1370195 0 0 1 2.13682,2.13682 2.1370195,2.1370195 0 0 1 -2.126486,2.137339 2.1370195,2.1370195 0 0 1 -5.16e-4,0 2.1370195,2.1370195 0 0 1 -0.0098,0 2.1370195,2.1370195 0 0 1 -2.137339,-2.137339 2.1370195,2.1370195 0 0 1 2.126485,-2.13682 z m 7.102409,0 a 2.1370196,2.1370196 0 0 1 0.01034,0 2.1370196,2.1370196 0 0 1 2.137336,2.13682 2.1370196,2.1370196 0 0 1 -2.126486,2.137339 2.1370196,2.1370196 0 0 1 -5.16e-4,0 2.1370196,2.1370196 0 0 1 -0.01033,0 2.1370196,2.1370196 0 0 1 -2.136823,-2.137339 2.1370196,2.1370196 0 0 1 2.126485,-2.13682 z m 7.127214,0 a 2.1370196,2.1370196 0 0 1 0.01085,0 2.1370196,2.1370196 0 0 1 2.13682,2.13682 2.1370196,2.1370196 0 0 1 -2.126485,2.137339 2.1370196,2.1370196 0 0 1 -5.16e-4,0 2.1370196,2.1370196 0 0 1 -0.0098,0 2.1370196,2.1370196 0 0 1 -2.137338,-2.137339 2.1370196,2.1370196 0 0 1 2.126485,-2.13682 z" />
  </g>
</svg>
