<?xml version="1.0" encoding="UTF-8" standalone="no"?>
<svg
   xmlns:dc="http://purl.org/dc/elements/1.1/"
   xmlns:cc="http://creativecommons.org/ns#"
   xmlns:rdf="http://www.w3.org/1999/02/22-rdf-syntax-ns#"
   xmlns:svg="http://www.w3.org/2000/svg"
   xmlns="http://www.w3.org/2000/svg"
   xmlns:sodipodi="http://sodipodi.sourceforge.net/DTD/sodipodi-0.dtd"
   xmlns:inkscape="http://www.inkscape.org/namespaces/inkscape"
   id="svg1083"
   version="1.1"
   viewBox="0 0 63.499999 63.500002"
   height="240"
   width="240"
   sodipodi:docname="Link_Strips.svg"
   inkscape:version="1.0 (4035a4fb49, 2020-05-01)">
  <sodipodi:namedview
     inkscape:document-rotation="0"
     pagecolor="#ffffff"
     bordercolor="#666666"
     borderopacity="1"
     objecttolerance="10"
     gridtolerance="10"
     guidetolerance="10"
     inkscape:pageopacity="0"
     inkscape:pageshadow="2"
     inkscape:window-width="1920"
     inkscape:window-height="1017"
     id="namedview9"
     showgrid="false"
     inkscape:zoom="1.7708333"
     inkscape:cx="98.862827"
     inkscape:cy="105.95062"
     inkscape:window-x="-8"
     inkscape:window-y="0"
     inkscape:window-maximized="1"
     inkscape:current-layer="svg1083" />
  <defs
     id="defs1077" />
  <metadata
     id="metadata1080">
    <rdf:RDF>
      <cc:Work
         rdf:about="">
        <dc:format>image/svg+xml</dc:format>
        <dc:type
           rdf:resource="http://purl.org/dc/dcmitype/StillImage" />
        <dc:title />
      </cc:Work>
    </rdf:RDF>
  </metadata>
  <path
     d="m 12.364361,15.268836 c -0.491647,0 -0.887801,0.395634 -0.887801,0.887285 V 16.53129 H 9.3102834 c -0.2107081,0 -0.3803385,0.169632 -0.3803385,0.380338 0,0.210709 0.1696304,0.380339 0.3803385,0.380339 H 11.47656 v 1.774571 H 9.3102834 c -0.2107081,0 -0.3803385,0.169627 -0.3803385,0.380338 0,0.210707 0.1696304,0.380339 0.3803385,0.380339 H 11.47656 v 1.775084 H 9.3102834 c -0.2107081,0 -0.3803385,0.16963 -0.3803385,0.380339 0,0.210709 0.1696304,0.380338 0.3803385,0.380338 H 11.47656 v 0.892969 c 0,0.491649 0.396154,0.887286 0.887801,0.887286 h 18.488793 c 0.03078,-0.338553 0.140137,-0.669256 0.340548,-0.950847 0.680112,-0.824449 1.46227,-1.562716 2.231906,-2.310455 a 1.9016903,1.9016903 0 0 1 -0.406178,-1.174089 1.9016903,1.9016903 0 0 1 1.891874,-1.901693 1.9016903,1.9016903 0 0 1 0.0098,0 1.9016903,1.9016903 0 0 1 1.298112,0.512115 c 0.972018,-0.612405 2.082432,-0.99272 3.245797,-1.015958 2.070354,-0.08912 4.12885,0.882748 5.385719,2.527493 0.970409,1.215843 1.408803,2.778451 1.33015,4.313434 h 11.305255 c 0.491651,0 0.887285,-0.395637 0.887285,-0.887286 v -7.099824 c 0,-0.491651 -0.395634,-0.887285 -0.887285,-0.887285 z m 27.31668,2.535761 a 5.9959898,5.9959898 0 0 0 -4.221448,1.755966 l -3.577043,3.577561 a 1.4989975,1.6863715 45 0 0 -0.132807,2.252059 1.4989975,1.6863715 45 0 0 0.0021,0.0021 v 5.16e-4 a 1.4989975,1.6863715 45 0 0 2.250509,-0.134874 1.4989975,1.6863715 45 0 0 0.0026,-0.0021 l 3.57446,-3.575492 a 2.9979951,2.9979951 0 0 1 4.240051,0 2.9979951,2.9979951 0 0 1 0,4.240051 l -6.359818,6.359819 a 2.9979951,2.9979951 0 0 1 -4.239536,0 l -0.530198,-0.530198 -2.119768,2.119765 0.530199,0.530201 a 5.9959898,5.9959898 0 0 0 8.47907,0 l 6.360335,-6.359819 a 5.9959898,5.9959898 0 0 0 0,-8.479586 5.9959898,5.9959898 0 0 0 -4.258138,-1.755966 z m -23.767543,0.0015 a 1.9016901,1.9016902 0 0 1 0.0093,0 1.9016901,1.9016902 0 0 1 1.901693,1.901693 1.9016901,1.9016902 0 0 1 -1.892393,1.901693 1.9016901,1.9016902 0 0 1 -0.0093,0 1.9016901,1.9016902 0 0 1 -1.901693,-1.901693 1.9016901,1.9016902 0 0 1 1.89239,-1.901693 z m 6.320028,0 a 1.9016901,1.9016902 0 0 1 0.0093,0 1.9016901,1.9016902 0 0 1 1.901692,1.901693 1.9016901,1.9016902 0 0 1 -1.891874,1.901693 1.9016901,1.9016902 0 0 1 -5.16e-4,0 1.9016901,1.9016902 0 0 1 -0.0093,0 1.9016901,1.9016902 0 0 1 -1.901693,-1.901693 1.9016901,1.9016902 0 0 1 1.892391,-1.901693 z m 6.402192,0 a 1.9016903,1.9016903 0 0 1 0.0098,0 1.9016903,1.9016903 0 0 1 1.901693,1.901693 1.9016903,1.9016903 0 0 1 -1.89239,1.901693 1.9016903,1.9016903 0 0 1 -5.16e-4,0 1.9016903,1.9016903 0 0 1 -0.0088,0 1.9016903,1.9016903 0 0 1 -1.901693,-1.901693 1.9016903,1.9016903 0 0 1 1.891874,-1.901693 z m 18.966803,0 a 1.9016904,1.9016904 0 0 1 0.0093,0 1.9016904,1.9016904 0 0 1 1.901693,1.901693 1.9016904,1.9016904 0 0 1 -1.892393,1.901693 1.9016904,1.9016904 0 0 1 -5.15e-4,0 1.9016904,1.9016904 0 0 1 -0.0088,0 1.9016904,1.9016904 0 0 1 -1.901692,-1.901693 1.9016904,1.9016904 0 0 1 1.89239,-1.901693 z m 6.342247,0 a 1.9016904,1.9016904 0 0 1 0.0093,0 1.9016904,1.9016904 0 0 1 1.901693,1.901693 1.9016904,1.9016904 0 0 1 -1.89239,1.901693 1.9016904,1.9016904 0 0 1 -5.19e-4,0 1.9016904,1.9016904 0 0 1 -0.0088,0 1.9016904,1.9016904 0 0 1 -1.901693,-1.901693 1.9016904,1.9016904 0 0 1 1.89239,-1.901693 z m -23.803197,9.53792 a 5.9959898,5.9959898 0 0 0 -4.221449,1.755966 l -6.359819,6.359819 a 5.9959898,5.9959898 0 0 0 0,8.479586 5.9959898,5.9959898 0 0 0 8.480103,0 l 0.0021,0.0021 3.577042,-3.577559 a 1.4989975,1.6863669 45 0 0 0.132292,-2.252059 1.4989975,1.6863669 45 0 0 -0.0021,-0.0021 1.4989975,1.6863669 45 0 0 -2.249993,0.134361 1.4989975,1.6863669 45 0 0 -0.0026,0.0026 l -3.574458,3.574976 -0.0026,-0.0021 a 2.9979951,2.9979951 0 0 1 -4.239535,0 2.9979951,2.9979951 0 0 1 0,-4.240052 l 6.359819,-6.359819 a 2.9979951,2.9979951 0 0 1 4.239535,0 l 0.530201,0.530202 2.119768,-2.119768 -0.530201,-0.530201 A 5.9959898,5.9959898 0 0 0 30.141571,27.344067 Z M 8.5609752,39.356773 c -0.4916461,0 -0.8878012,0.395634 -0.8878012,0.887283 v 0.375171 H 5.5068979 c -0.2107081,0 -0.3803385,0.169629 -0.3803385,0.380338 0,0.210707 0.1696304,0.380339 0.3803385,0.380339 H 7.673174 v 1.775084 H 5.5068979 c -0.2107081,0 -0.3803385,0.16963 -0.3803385,0.380339 0,0.210706 0.1696304,0.380338 0.3803385,0.380338 H 7.673174 v 1.774571 H 5.5068979 c -0.2107081,0 -0.3803385,0.16963 -0.3803385,0.380339 0,0.210709 0.1696304,0.380339 0.3803385,0.380339 H 7.673174 v 0.892968 c 0,0.491649 0.3961551,0.887283 0.8878012,0.887283 H 53.68277 c 0.491652,0 0.887283,-0.395634 0.887286,-0.887283 v -7.099826 c 0,-0.491649 -0.395634,-0.887283 -0.887286,-0.887283 H 32.653046 c -0.113043,1.056582 -1.114645,1.785723 -1.812293,2.503723 -0.02337,0.02114 -0.045,0.04432 -0.06821,0.06563 a 1.9016903,1.9016903 0 0 1 0.335378,-0.03152 1.9016903,1.9016903 0 0 1 0.0098,0 1.9016903,1.9016903 0 0 1 1.901692,1.901692 1.9016903,1.9016903 0 0 1 -1.89239,1.901693 1.9016903,1.9016903 0 0 1 -5.16e-4,0 1.9016903,1.9016903 0 0 1 -0.0088,0 1.9016903,1.9016903 0 0 1 -1.901693,-1.901693 1.9016903,1.9016903 0 0 1 0.02739,-0.321942 c -0.845609,0.879843 -1.71902,1.715127 -2.86701,2.19728 -2.077913,0.937588 -4.597611,0.593029 -6.421313,-0.727086 a 1.9016902,1.9016902 0 0 1 -1.505852,0.753441 1.9016902,1.9016902 0 0 1 -5.16e-4,0 1.9016902,1.9016902 0 0 1 -0.0093,0 1.9016902,1.9016902 0 0 1 -1.901693,-1.901693 1.9016902,1.9016902 0 0 1 1.19166,-1.764233 c -0.320225,-0.850467 -0.456827,-1.766573 -0.410311,-2.675287 z m 3.5491378,2.537828 a 1.9016902,1.9016902 0 0 1 0.0093,0 1.9016902,1.9016902 0 0 1 1.901694,1.901692 1.9016902,1.9016902 0 0 1 -1.892392,1.901693 1.9016902,1.9016902 0 0 1 -0.0093,0 1.9016902,1.9016902 0 0 1 -1.901692,-1.901693 1.9016902,1.9016902 0 0 1 1.89239,-1.901692 z m 25.368478,0 a 1.9016903,1.9016903 0 0 1 0.0098,0 1.9016903,1.9016903 0 0 1 1.901692,1.901692 1.9016903,1.9016903 0 0 1 -1.892392,1.901693 1.9016903,1.9016903 0 0 1 -5.16e-4,0 1.9016903,1.9016903 0 0 1 -0.0088,0 1.9016903,1.9016903 0 0 1 -1.901693,-1.901693 1.9016903,1.9016903 0 0 1 1.891874,-1.901692 z m 6.320544,0 a 1.9016904,1.9016904 0 0 1 0.0093,0 1.9016904,1.9016904 0 0 1 1.901693,1.901692 1.9016904,1.9016904 0 0 1 -1.892393,1.901693 1.9016904,1.9016904 0 0 1 -5.16e-4,0 1.9016904,1.9016904 0 0 1 -0.0088,0 1.9016904,1.9016904 0 0 1 -1.901693,-1.901693 1.9016904,1.9016904 0 0 1 1.89239,-1.901692 z m 6.342248,0 a 1.9016904,1.9016904 0 0 1 0.0093,0 1.9016904,1.9016904 0 0 1 1.901692,1.901692 1.9016904,1.9016904 0 0 1 -1.89239,1.901693 1.9016904,1.9016904 0 0 1 -5.18e-4,0 1.9016904,1.9016904 0 0 1 -0.0088,0 1.9016904,1.9016904 0 0 1 -1.901693,-1.901693 1.9016904,1.9016904 0 0 1 1.89239,-1.901692 z"
     style="opacity:0.997;fill:#000000;fill-opacity:1;stroke:none;stroke-width:1.25085;stroke-miterlimit:4;stroke-dasharray:none"
     id="rect3113" />
</svg>
