<?xml version="1.0" encoding="UTF-8" standalone="no"?>
<svg
   xmlns:dc="http://purl.org/dc/elements/1.1/"
   xmlns:cc="http://creativecommons.org/ns#"
   xmlns:rdf="http://www.w3.org/1999/02/22-rdf-syntax-ns#"
   xmlns:svg="http://www.w3.org/2000/svg"
   xmlns="http://www.w3.org/2000/svg"
   xmlns:sodipodi="http://sodipodi.sourceforge.net/DTD/sodipodi-0.dtd"
   xmlns:inkscape="http://www.inkscape.org/namespaces/inkscape"
   inkscape:version="1.0 (4035a4fb49, 2020-05-01)"
   sodipodi:docname="Link.svg"
   id="svg1083"
   version="1.1"
   viewBox="0 0 63.499999 63.500002"
   height="240"
   width="240">
  <sodipodi:namedview
     inkscape:current-layer="svg1083"
     inkscape:window-maximized="1"
     inkscape:window-y="0"
     inkscape:window-x="-8"
     inkscape:cy="119.64914"
     inkscape:cx="99.182114"
     inkscape:zoom="2.5043365"
     showgrid="false"
     id="namedview10"
     inkscape:window-height="1017"
     inkscape:window-width="1920"
     inkscape:pageshadow="2"
     inkscape:pageopacity="0"
     guidetolerance="10"
     gridtolerance="10"
     objecttolerance="10"
     borderopacity="1"
     bordercolor="#666666"
     pagecolor="#ffffff" />
  <title
     id="title3946">Link Icon</title>
  <defs
     id="defs1077" />
  <metadata
     id="metadata1080">
    <rdf:RDF>
      <cc:Work
         rdf:about="">
        <dc:format>image/svg+xml</dc:format>
        <dc:type
           rdf:resource="http://purl.org/dc/dcmitype/StillImage" />
        <dc:title>Link Icon</dc:title>
      </cc:Work>
    </rdf:RDF>
  </metadata>
  <path
     d="M 46.045274,6.6146076 A 10.807075,10.807075 0 0 0 38.4364,9.7799064 l -6.447483,6.4479506 a 2.7017689,3.0394892 45 0 0 -0.238917,4.05925 2.7017689,3.0394892 45 0 0 0.0037,0.0037 v 4.76e-4 a 2.7017689,3.0394892 45 0 0 4.055979,-0.242657 2.7017689,3.0394892 45 0 0 0.0043,-0.0043 l 6.443279,-6.443744 a 5.4035378,5.4035378 0 0 1 7.642069,0 5.4035378,5.4035378 0 0 1 0,7.642069 L 38.4364,32.705188 a 5.4035378,5.4035378 0 0 1 -7.6416,0 l -0.955201,-0.95521 -3.8208,3.820801 0.955201,0.955199 a 10.807075,10.807075 0 0 0 15.283203,0 L 53.72007,25.063576 a 10.807075,10.807075 0 0 0 0,-15.2836696 10.807075,10.807075 0 0 0 -7.674796,-3.1652988 z M 28.851203,23.808678 a 10.807075,10.807075 0 0 0 -7.608405,3.165299 L 9.779929,38.436378 a 10.807075,10.807075 0 0 0 0,15.283667 10.807075,10.807075 0 0 0 15.28367,0 l 0.0037,0.0037 6.447485,-6.447952 a 2.7017689,3.0394807 45 0 0 0.238916,-4.059719 2.7017689,3.0394807 45 0 0 -0.0037,-0.0037 2.7017689,3.0394807 45 0 0 -4.055977,0.242657 2.7017689,3.0394807 45 0 0 -0.0043,0.0043 l -6.443276,6.443744 -0.0037,-0.0037 a 5.4035378,5.4035378 0 0 1 -7.642069,0 5.4035378,5.4035378 0 0 1 0,-7.642069 L 25.063599,30.794788 a 5.4035378,5.4035378 0 0 1 7.6416,0 l 0.955202,0.955199 3.8208,-3.820802 L 36.526,26.973986 a 10.807075,10.807075 0 0 0 -7.674797,-3.165308 z"
     style="opacity:0.996;fill:#000000;fill-opacity:1;stroke:none;stroke-width:0.467961"
     id="rect3809" />
</svg>
