<?xml version="1.0" encoding="UTF-8" standalone="no"?>
<svg
   xmlns:dc="http://purl.org/dc/elements/1.1/"
   xmlns:cc="http://creativecommons.org/ns#"
   xmlns:rdf="http://www.w3.org/1999/02/22-rdf-syntax-ns#"
   xmlns:svg="http://www.w3.org/2000/svg"
   xmlns="http://www.w3.org/2000/svg"
   xmlns:sodipodi="http://sodipodi.sourceforge.net/DTD/sodipodi-0.dtd"
   xmlns:inkscape="http://www.inkscape.org/namespaces/inkscape"
   inkscape:version="1.0 (4035a4fb49, 2020-05-01)"
   sodipodi:docname="Menu.svg"
   width="240"
   height="240"
   viewBox="0 0 63.499999 63.500002"
   version="1.1"
   id="svg1083">
  <sodipodi:namedview
     inkscape:current-layer="svg1083"
     inkscape:window-maximized="1"
     inkscape:window-y="0"
     inkscape:window-x="-8"
     inkscape:cy="120"
     inkscape:cx="120"
     inkscape:zoom="3.5416667"
     showgrid="false"
     id="namedview10"
     inkscape:window-height="1017"
     inkscape:window-width="1920"
     inkscape:pageshadow="2"
     inkscape:pageopacity="0"
     guidetolerance="10"
     gridtolerance="10"
     objecttolerance="10"
     borderopacity="1"
     bordercolor="#666666"
     pagecolor="#ffffff" />
  <defs
     id="defs1077" />
  <metadata
     id="metadata1080">
    <rdf:RDF>
      <cc:Work
         rdf:about="">
        <dc:format>image/svg+xml</dc:format>
        <dc:type
           rdf:resource="http://purl.org/dc/dcmitype/StillImage" />
        <dc:title />
      </cc:Work>
    </rdf:RDF>
  </metadata>
  <path
     d="m 10.138399,15.874999 c -1.2651136,0 -2.2835816,1.180042 -2.2835816,2.645834 0,1.465792 1.018468,2.645833 2.2835816,2.645833 h 43.388567 c 1.265113,0 2.283582,-1.180041 2.283582,-2.645833 0,-1.465792 -1.018469,-2.645834 -2.283582,-2.645834 z M 9.9730343,29.104166 c -1.2651137,0 -2.2835815,1.180042 -2.2835815,2.645834 0,1.465791 1.0184678,2.645833 2.2835815,2.645833 H 53.361601 c 1.265114,0 2.283582,-1.180042 2.283582,-2.645833 0,-1.465792 -1.018468,-2.645834 -2.283582,-2.645834 z m 0,13.229167 c -1.2651137,0 -2.2835815,1.180041 -2.2835815,2.645835 0,1.465789 1.0184678,2.645833 2.2835815,2.645833 H 53.361601 c 1.265114,0 2.283582,-1.180044 2.283582,-2.645833 0,-1.465794 -1.018468,-2.645835 -2.283582,-2.645835 z"
     style="opacity:0.996;fill:#000000;fill-opacity:1;stroke:none;stroke-width:0.527751"
     id="rect3097" />
</svg>
