<?xml version="1.0" encoding="UTF-8" standalone="no"?>
<svg
   xmlns:dc="http://purl.org/dc/elements/1.1/"
   xmlns:cc="http://creativecommons.org/ns#"
   xmlns:rdf="http://www.w3.org/1999/02/22-rdf-syntax-ns#"
   xmlns:svg="http://www.w3.org/2000/svg"
   xmlns="http://www.w3.org/2000/svg"
   xmlns:sodipodi="http://sodipodi.sourceforge.net/DTD/sodipodi-0.dtd"
   xmlns:inkscape="http://www.inkscape.org/namespaces/inkscape"
   inkscape:version="1.0 (4035a4fb49, 2020-05-01)"
   sodipodi:docname="MusicSync.svg"
   width="240"
   height="240"
   viewBox="0 0 63.499999 63.500002"
   version="1.1"
   id="svg1083">
  <sodipodi:namedview
     inkscape:current-layer="svg1083"
     inkscape:window-maximized="1"
     inkscape:window-y="0"
     inkscape:window-x="-8"
     inkscape:cy="145.06125"
     inkscape:cx="85.683178"
     inkscape:zoom="1.7708333"
     showgrid="false"
     id="namedview17"
     inkscape:window-height="1017"
     inkscape:window-width="1920"
     inkscape:pageshadow="2"
     inkscape:pageopacity="0"
     guidetolerance="10"
     gridtolerance="10"
     objecttolerance="10"
     borderopacity="1"
     bordercolor="#666666"
     pagecolor="#ffffff"
     inkscape:document-rotation="0" />
  <defs
     id="defs1077">
    <symbol
       id="ms_beamed_notes_8c">
      <title
         id="title1697">Beamed notes 8C</title>
      <path
         d="m 72.20723,0 -51.6699,17.50004 v 56.0058 c -2.8166,-2.471 -8.2835,-2.8232 -13.117203,-0.7812 -5.9301,2.505 -8.6582,7.6616 -6.8867,11.8554 1.7714,4.1937 7.3707,5.835 13.300803,3.3301 5.6522,-2.3877 9.5529,-7.6767 8.373,-11.7988 V 23.38284 L 70.53733,5.88281 v 50.12303 c -2.8166,-2.471 -8.2854,-2.8231 -13.1191,-0.7812 -5.9301,2.505 -8.6563,7.6617 -6.8848,11.8554 1.7714,4.1938 7.3707,5.8351 13.3008,3.3301 5.6491,-2.3865 9.5475,-7.6717 8.373,-11.793 z"
         id="path1699" />
    </symbol>
    <symbol
       id="ms_note_8">
      <title
         id="title1510">note 8</title>
      <path
         d="m 20.53754,0 v 55.93554 c -2.8167,-2.471 -8.28539,-2.82308 -13.119102,-0.7812 -5.930091,2.50502 -8.656324,7.66368 -6.8847995,11.85738 1.7715755,4.1938 7.3707085,5.8351 13.3008015,3.3301 5.65231,-2.3877 9.553,-7.6786 8.373,-11.80078 v -39.2031 c 3.022,0.4879 5.88511,2.09979 8.0489,4.3105 4.13061,4.22019 6.82721,10.6192 5.5527,17.7285 -0.91869,5.1245 -2.5568,8.3485 -4.2012,12.4219 l 1.1817,-0.125 c 2.3638,-5.3453 6.29175,-12.90789 5.2675,-20.8379 -0.94945,-7.35089 -6.07047,-12.46993 -9.4003,-16.627 -3.44427,-4.29993 -6.0235,-7.1097 -6.6582,-16.13277 z"
         id="path1512" />
    </symbol>
  </defs>
  <metadata
     id="metadata1080">
    <rdf:RDF>
      <cc:Work
         rdf:about="">
        <dc:format>image/svg+xml</dc:format>
        <dc:type
           rdf:resource="http://purl.org/dc/dcmitype/StillImage" />
        <dc:title />
      </cc:Work>
    </rdf:RDF>
  </metadata>
  <path
     d="M 58.094631,7.1018914 C 46.369946,10.34311 34.645237,13.584628 22.920551,16.825846 v 25.985496 c -2.279295,-0.100148 -4.631939,-0.0057 -6.756694,0.804084 -2.387303,0.842386 -4.646305,2.435202 -5.378484,4.700487 -0.558291,1.655207 0.07271,3.526513 1.502235,4.687055 1.55362,1.344691 3.81018,1.817004 5.927286,1.709454 0.606896,-0.02795 1.375183,-0.12115 2.025716,-0.269232 2.638296,-0.587436 5.145003,-1.912565 6.737057,-3.896405 0.896244,-1.110329 1.379903,-2.505692 1.132747,-3.870047 -0.128841,-1.735164 -0.01011,-3.476022 -0.05167,-5.213636 V 22.01416 c 8.299265,-2.453346 16.598622,-4.906446 24.897705,-7.360275 0,6.525298 0,13.050769 0,19.576066 -2.278407,-0.09734 -4.630574,-0.006 -6.754625,0.804085 -2.37811,0.837536 -4.62638,2.417741 -5.370732,4.667933 -0.55639,1.628053 0.0189,3.476818 1.406114,4.645713 1.308423,1.174448 3.175093,1.734733 5.009513,1.787488 0.534913,0.02237 1.249725,0.0047 1.848466,-0.07648 2.868335,-0.35369 5.619605,-1.632022 7.496702,-3.59823 1.131065,-1.191581 1.845744,-2.770876 1.54926,-4.342371 -0.113131,-1.867329 -0.01469,-3.739116 -0.04651,-5.608442 z M 31.583071,22.976892 c -0.370306,0 -0.668692,0.298388 -0.668692,0.668693 v 7.018177 c 0,0.370303 0.298386,0.668692 0.668692,0.668692 h 0.33383 c 0.370305,0 0.668694,-0.298389 0.668694,-0.668692 v -7.018177 c 0,-0.370305 -0.298391,-0.668693 -0.668694,-0.668693 z m 6.71277,0.683162 c -0.246748,0.01238 -0.472678,0.16851 -0.562758,0.415996 l -2.424142,6.661092 c -0.120089,0.32998 0.0483,0.691737 0.378272,0.811837 l 0.379304,0.137975 c 0.329983,0.120097 0.692772,-0.0488 0.812872,-0.378788 l 2.423626,-6.660058 c 0.120099,-0.329983 -0.0488,-0.69277 -0.378789,-0.812871 L 38.54492,23.697778 c -0.0825,-0.03003 -0.166828,-0.04182 -0.249079,-0.03772 z M 5.2916522,33.389177 v 3.628718 a 2.699393,2.699393 0 0 1 2.3213053,2.672189 2.699393,2.699393 0 0 1 -2.3213053,2.673223 v 3.622516 h 4.8870408 c 0.0568,-0.08129 0.112034,-0.163534 0.172599,-0.241845 2.472018,-3.101327 6.516802,-4.423209 10.381279,-4.546492 a 2.699393,2.699393 0 0 1 -0.459404,-1.507402 2.699393,2.699393 0 0 1 1.05885,-2.143022 v -4.157885 z m 24.3520018,0 c -2.62e-4,1.594893 0.0013,3.189833 0.0036,4.78472 a 2.699393,2.699393 0 0 1 2.220018,-1.182873 2.699393,2.699393 0 0 1 0.01344,0 2.699393,2.699393 0 0 1 2.699578,2.69906 2.699393,2.699393 0 0 1 -2.686143,2.700094 2.699393,2.699393 0 0 1 -5.15e-4,0 2.699393,2.699393 0 0 1 -0.01292,0 2.699393,2.699393 0 0 1 -2.22622,-1.173057 c 0.0047,1.50204 0.0096,3.004167 0.01964,4.506188 0.01185,0.08693 0.01775,0.175072 0.02739,0.262514 h 12.049911 c -0.646999,-0.473382 -1.220205,-1.049747 -1.6862,-1.736844 -0.572746,-0.768292 -0.886849,-1.661462 -0.980818,-2.582788 A 2.699393,2.699393 0 0 1 38.224,39.690084 2.699393,2.699393 0 0 1 40.498279,37.025132 c 1.466737,-1.769746 3.452355,-2.94544 5.617229,-3.635955 z m -15.772681,3.601847 a 2.699393,2.699393 0 0 1 0.01395,0 2.699393,2.699393 0 0 1 2.69906,2.69906 2.699393,2.699393 0 0 1 -2.68614,2.700094 2.699393,2.699393 0 0 1 -5.19e-4,0 2.699393,2.699393 0 0 1 -0.0124,0 2.699393,2.699393 0 0 1 -2.69906,-2.700094 2.699393,2.699393 0 0 1 2.685106,-2.69906 z m 44.337347,5.974829 c -1.008298,1.24723 -2.279179,2.257018 -3.693832,3.01997 h 3.693832 z m -21.892205,4.684469 c -0.0823,-0.0042 -0.167103,0.0082 -0.249598,0.03824 l -0.379304,0.137459 c -0.32998,0.120097 -0.498371,0.48237 -0.378272,0.812353 l 2.424142,6.660576 c 0.1201,0.329983 0.481856,0.498375 0.811837,0.378272 l 0.379306,-0.137458 c 0.329978,-0.120098 0.498888,-0.482892 0.378789,-0.812872 l -2.423626,-6.660057 c -0.0901,-0.247481 -0.316521,-0.404191 -0.563274,-0.416513 z m -4.733044,0.39274 c -0.370306,0 -0.668692,0.297873 -0.668692,0.668176 v 7.018695 c 0,0.370303 0.298386,0.668176 0.668692,0.668176 h 0.33383 c 0.370303,0 0.668692,-0.297873 0.668694,-0.668176 v -7.018695 c 0,-0.370303 -0.298389,-0.668176 -0.668694,-0.668176 z m -5.192964,5.266346 c -0.712301,0.566237 -1.490068,1.05111 -2.309421,1.458825 l -0.02015,0.0553 c -0.10057,0.276307 0.04099,0.580528 0.317294,0.681094 l 0.573093,0.208256 c 0.276302,0.100573 0.579493,-0.04099 0.680061,-0.317291 z"
     style="opacity:0.997;fill:#000000;fill-opacity:1;stroke:none;stroke-width:1.77554;stroke-miterlimit:4;stroke-dasharray:none"
     id="path1457" />
</svg>
