<?xml version="1.0" encoding="UTF-8" standalone="no"?>
<svg
   xmlns:dc="http://purl.org/dc/elements/1.1/"
   xmlns:cc="http://creativecommons.org/ns#"
   xmlns:rdf="http://www.w3.org/1999/02/22-rdf-syntax-ns#"
   xmlns:svg="http://www.w3.org/2000/svg"
   xmlns="http://www.w3.org/2000/svg"
   xmlns:sodipodi="http://sodipodi.sourceforge.net/DTD/sodipodi-0.dtd"
   xmlns:inkscape="http://www.inkscape.org/namespaces/inkscape"
   inkscape:version="1.0 (4035a4fb49, 2020-05-01)"
   sodipodi:docname="Outputs.svg"
   width="240"
   height="240"
   viewBox="0 0 63.499999 63.500002"
   version="1.1"
   id="svg1083">
  <sodipodi:namedview
     inkscape:current-layer="svg1083"
     inkscape:window-maximized="1"
     inkscape:window-y="0"
     inkscape:window-x="-8"
     inkscape:cy="137.77707"
     inkscape:cx="142.22134"
     inkscape:zoom="2.5043365"
     showgrid="false"
     id="namedview7"
     inkscape:window-height="1017"
     inkscape:window-width="1920"
     inkscape:pageshadow="2"
     inkscape:pageopacity="0"
     guidetolerance="10"
     gridtolerance="10"
     objecttolerance="10"
     borderopacity="1"
     bordercolor="#666666"
     pagecolor="#ffffff" />
  <defs
     id="defs1077" />
  <metadata
     id="metadata1080">
    <rdf:RDF>
      <cc:Work
         rdf:about="">
        <dc:format>image/svg+xml</dc:format>
        <dc:type
           rdf:resource="http://purl.org/dc/dcmitype/StillImage" />
        <dc:title />
      </cc:Work>
    </rdf:RDF>
  </metadata>
  <path
     d="m 12.382448,5.2916666 c -2.347122,0 -4.3030965,1.9241165 -4.3030965,4.2328167 V 27.517184 c 0,2.308701 1.9559745,4.232817 4.3030965,4.232817 h 11.571904 a 2.1166668,2.1166668 0 0 0 2.116667,-2.116667 2.1166668,2.1166668 0 0 0 -2.116667,-2.116667 2.1166668,2.1166668 0 0 0 -0.05271,5.17e-4 H 12.382448 V 9.5244833 H 51.117553 V 27.517184 H 39.860875 a 2.1166668,2.1166668 0 0 0 -0.03152,-5.17e-4 2.1166668,2.1166668 0 0 0 -2.116666,2.116667 2.1166668,2.1166668 0 0 0 2.116666,2.116667 h 11.288201 c 2.347121,0 4.303096,-1.924116 4.303096,-4.232817 V 9.5244833 c 0,-2.3087013 -1.955975,-4.2328167 -4.303096,-4.2328167 z M 31.891852,21.166667 c -1.465792,0 -2.645833,0.971556 -2.645833,2.178678 v 13.696323 h -7.9375 a 5.291666,5.291666 0 0 0 -5.291667,5.291665 v 6.000668 a 5.291666,5.291666 0 0 0 -2.645834,4.582666 5.291666,5.291666 0 0 0 5.291667,5.291667 5.291666,5.291666 0 0 0 5.291667,-5.291667 5.291666,5.291666 0 0 0 -2.645833,-4.58215 V 47.625 42.333333 h 7.9375 v 6.000668 a 5.291666,5.291666 0 0 0 -2.645834,4.582666 5.291666,5.291666 0 0 0 5.291667,5.291667 5.291666,5.291666 0 0 0 5.291667,-5.291667 5.291666,5.291666 0 0 0 -2.645833,-4.58215 v -6.001184 h 7.9375 V 47.625 48.334001 a 5.291666,5.291666 0 0 0 -2.645834,4.582666 5.291666,5.291666 0 0 0 5.291668,5.291667 5.291666,5.291666 0 0 0 5.291667,-5.291667 5.291666,5.291666 0 0 0 -2.645833,-4.58215 v -6.001184 a 5.291666,5.291666 0 0 0 -5.291668,-5.291665 h -7.9375 V 23.345345 c 0,-1.207122 -1.180042,-2.178678 -2.645834,-2.178678 z"
     style="color:#000000;font-style:normal;font-variant:normal;font-weight:normal;font-stretch:normal;font-size:medium;line-height:normal;font-family:sans-serif;font-variant-ligatures:normal;font-variant-position:normal;font-variant-caps:normal;font-variant-numeric:normal;font-variant-alternates:normal;font-variant-east-asian:normal;font-feature-settings:normal;font-variation-settings:normal;text-indent:0;text-align:start;text-decoration:none;text-decoration-line:none;text-decoration-style:solid;text-decoration-color:#000000;letter-spacing:normal;word-spacing:normal;text-transform:none;writing-mode:lr-tb;direction:ltr;text-orientation:mixed;dominant-baseline:auto;baseline-shift:baseline;text-anchor:start;white-space:normal;shape-padding:0;shape-margin:0;inline-size:0;clip-rule:nonzero;display:inline;overflow:visible;visibility:visible;opacity:1;isolation:auto;mix-blend-mode:normal;color-interpolation:sRGB;color-interpolation-filters:linearRGB;solid-color:#000000;solid-opacity:1;vector-effect:none;fill:#000000;fill-opacity:1;fill-rule:nonzero;stroke:none;stroke-width:4.2685;stroke-linecap:butt;stroke-linejoin:miter;stroke-miterlimit:4;stroke-dasharray:none;stroke-dashoffset:0;stroke-opacity:1;paint-order:normal;color-rendering:auto;image-rendering:auto;shape-rendering:auto;text-rendering:auto;enable-background:accumulate;stop-color:#000000;stop-opacity:1"
     id="path1424" />
</svg>
