<?xml version="1.0" encoding="UTF-8" standalone="no"?>
<svg
   xmlns:dc="http://purl.org/dc/elements/1.1/"
   xmlns:cc="http://creativecommons.org/ns#"
   xmlns:rdf="http://www.w3.org/1999/02/22-rdf-syntax-ns#"
   xmlns:svg="http://www.w3.org/2000/svg"
   xmlns="http://www.w3.org/2000/svg"
   xmlns:sodipodi="http://sodipodi.sourceforge.net/DTD/sodipodi-0.dtd"
   xmlns:inkscape="http://www.inkscape.org/namespaces/inkscape"
   width="240"
   height="240"
   viewBox="0 0 63.499999 63.500002"
   version="1.1"
   id="svg1083"
   sodipodi:docname="ScreenColor.svg"
   inkscape:version="1.0 (4035a4fb49, 2020-05-01)">
  <sodipodi:namedview
     inkscape:document-rotation="0"
     pagecolor="#ffffff"
     bordercolor="#666666"
     borderopacity="1"
     objecttolerance="10"
     gridtolerance="10"
     guidetolerance="10"
     inkscape:pageopacity="0"
     inkscape:pageshadow="2"
     inkscape:window-width="1920"
     inkscape:window-height="1017"
     id="namedview12"
     showgrid="false"
     inkscape:zoom="2.5043365"
     inkscape:cx="133.39777"
     inkscape:cy="132.19877"
     inkscape:window-x="-8"
     inkscape:window-y="0"
     inkscape:window-maximized="1"
     inkscape:current-layer="svg1083" />
  <defs
     id="defs1077" />
  <metadata
     id="metadata1080">
    <rdf:RDF>
      <cc:Work
         rdf:about="">
        <dc:format>image/svg+xml</dc:format>
        <dc:type
           rdf:resource="http://purl.org/dc/dcmitype/StillImage" />
        <dc:title />
      </cc:Work>
    </rdf:RDF>
  </metadata>
  <path
     d="m 49.568033,5.2916662 -25.256856,25.2568558 2.508375,2.508374 a 2.6215885,2.6215885 0 0 1 0.310575,-0.37982 2.6215885,2.6215885 0 0 1 0.0093,-0.0093 2.6215885,2.6215885 0 0 1 3.707267,0 2.6215885,2.6215885 0 0 1 0.0093,3.698483 2.6215885,2.6215885 0 0 1 -5.16e-4,5.16e-4 2.6215885,2.6215885 0 0 1 -0.0083,0.0088 2.6215885,2.6215885 0 0 1 -0.389126,0.319879 l 2.503724,2.504239 25.246523,-25.246522 -2.476852,-2.476334 a 2.6215886,2.6215886 0 0 1 -0.146245,0.160197 2.6215886,2.6215886 0 0 1 -5.16e-4,5.16e-4 2.6215886,2.6215886 0 0 1 -0.0088,0.0088 2.6215886,2.6215886 0 0 1 -3.707786,0 2.6215886,2.6215886 0 0 1 -0.0088,-3.6984818 2.6215886,2.6215886 0 0 1 0.0088,-0.0088 2.6215886,2.6215886 0 0 1 0.170016,-0.155546 l -2.259809,-2.259811 c -0.07462,-0.07462 -0.144431,-0.152404 -0.210325,-0.232027 z m -14.029635,1.088306 c -0.07997,0.003 -0.160441,0.02185 -0.237709,0.05788 l -0.355018,0.165365 c -0.07727,0.03603 -0.143222,0.08591 -0.196887,0.145211 -0.160941,0.177955 -0.208865,0.441011 -0.10077,0.672827 l 2.909383,6.2388958 c 0.144129,0.309084 0.508439,0.441779 0.817522,0.297656 l 0.355016,-0.165881 c 0.309083,-0.144132 0.441782,-0.508956 0.297656,-0.818038 L 36.119243,6.7355062 c -0.108101,-0.231814 -0.34095,-0.36453 -0.580845,-0.355534 z m -5.18056,4.0901898 c -0.165936,0 -0.331737,0.06353 -0.458888,0.190686 l -0.229444,0.229443 c -0.254297,0.254298 -0.254299,0.663474 0,0.917773 l 4.819862,4.819861 c 0.254299,0.254298 0.663477,0.254299 0.917773,0 l 0.229444,-0.229443 c 0.254299,-0.2543 0.254299,-0.663992 0,-0.91829 l -4.819862,-4.819344 c -0.127148,-0.12715 -0.292949,-0.190686 -0.458885,-0.190686 z M 10.58385,13.22865 c -2.8895225,0 -5.2927007,2.403176 -5.2927007,5.292699 V 42.33385 c 0,2.889525 2.4031782,5.291151 5.2927007,5.291151 h 14.551568 v 5.291666 h -1.852084 c -1.172636,0 -2.116666,1.180042 -2.116666,2.645834 0,1.465792 0.94403,2.645833 2.116666,2.645833 h 16.933334 c 1.172634,0 2.116667,-1.180041 2.116667,-2.645833 -3e-6,-1.465792 -0.944033,-2.645834 -2.116667,-2.645834 H 38.364585 V 47.625001 H 52.91615 c 2.88952,0 5.292701,-2.401629 5.292701,-5.291151 v -7.938016 h -5.16e-4 a 2.4341669,2.4341669 0 0 0 -2.43396,-2.422076 2.4341669,2.4341669 0 0 0 -2.434479,2.433961 2.4341669,2.4341669 0 0 0 0.0057,0.162782 v 7.763349 c 0,0.279344 -0.150082,0.427881 -0.429432,0.427881 h -42.3323 c -0.279347,0 -0.429432,-0.148537 -0.429432,-0.427881 V 18.521349 c 0,-0.279339 0.150085,-0.429429 0.429432,-0.429429 h 9.075415 a 2.4341668,2.4341668 0 0 0 0.164849,0.0057 2.4341668,2.4341668 0 0 0 2.434476,-2.434476 2.4341668,2.4341668 0 0 0 -2.414839,-2.433444 v -10e-4 z m 36.949683,0.103353 a 2.6215885,2.6215885 0 0 1 1.881539,0.767394 2.6215885,2.6215885 0 0 1 0.0093,3.698483 2.6215885,2.6215885 0 0 1 -5.19e-4,5.16e-4 2.6215885,2.6215885 0 0 1 -0.0088,0.0083 2.6215885,2.6215885 0 0 1 -3.707784,0 2.6215885,2.6215885 0 0 1 -0.0088,-3.697966 2.6215885,2.6215885 0 0 1 0.0093,-0.0093 2.6215885,2.6215885 0 0 1 1.825729,-0.767394 z m -21.411614,2.289782 c -0.150854,-0.02075 -0.303233,0.02705 -0.414961,0.128158 -0.04962,0.04496 -0.0913,0.100632 -0.121439,0.165365 l -0.250116,0.535884 c -0.120682,0.258809 -0.0087,0.565057 0.250116,0.685746 l 6.419247,2.993615 c 0.258815,0.120679 0.564025,0.0092 0.684713,-0.249595 l 0.250629,-0.536403 c 0.120676,-0.258818 0.0092,-0.564544 -0.249598,-0.685228 L 26.270748,15.66571 c -0.04853,-0.02263 -0.09854,-0.03701 -0.148829,-0.04393 z m 15.201141,3.919657 a 2.6215885,2.6215885 0 0 1 1.882056,0.767395 2.6215885,2.6215885 0 0 1 0.0093,3.699 2.6215885,2.6215885 0 0 1 -5.16e-4,5.16e-4 2.6215885,2.6215885 0 0 1 -0.0088,0.0088 2.6215885,2.6215885 0 0 1 -3.707786,-5.18e-4 2.6215885,2.6215885 0 0 1 -0.0088,-3.697965 2.6215885,2.6215885 0 0 1 0.0093,-0.0093 2.6215885,2.6215885 0 0 1 1.825212,-0.767914 z m 8.945706,4.883423 c -0.149318,0.0018 -0.293949,0.05803 -0.405143,0.158647 -0.05923,0.05372 -0.108667,0.11961 -0.144693,0.196887 l -0.165883,0.355018 c -0.144124,0.309086 -0.01142,0.673391 0.297656,0.81752 l 6.238381,2.909901 c 0.309086,0.144129 0.673909,0.01091 0.818038,-0.298172 l 0.165365,-0.354502 c 0.144124,-0.309084 0.01142,-0.674423 -0.297656,-0.818555 L 50.53645,24.482743 c -0.08693,-0.04054 -0.178093,-0.05896 -0.267684,-0.05788 z M 35.205603,25.6589 a 2.6215885,2.6215885 0 0 1 1.882055,0.767395 2.6215885,2.6215885 0 0 1 0.0093,3.698997 2.6215885,2.6215885 0 0 1 -5.16e-4,5.18e-4 2.6215885,2.6215885 0 0 1 -0.0088,0.0088 2.6215885,2.6215885 0 0 1 -3.707784,-5.16e-4 2.6215885,2.6215885 0 0 1 -0.0088,-3.697965 2.6215885,2.6215885 0 0 1 0.0093,-0.0093 2.6215885,2.6215885 0 0 1 1.825213,-0.767911 z m 12.365654,2.024166 c -0.165936,0 -0.331737,0.06353 -0.458886,0.190685 l -0.229444,0.22996 c -0.254299,0.254299 -0.254299,0.663475 0,0.917774 l 4.819344,4.819861 c 0.254299,0.254297 0.66399,0.254299 0.918289,0 l 0.229444,-0.229444 c 0.254299,-0.254299 0.254299,-0.66399 0,-0.918289 l -4.819862,-4.819862 c -0.127148,-0.127148 -0.292949,-0.190685 -0.458885,-0.190685 z m -3.206007,2.839101 c -0.06692,0.0025 -0.134252,0.01841 -0.198953,0.04858 l -0.536401,0.25063 c -0.06469,0.03017 -0.120419,0.07129 -0.165364,0.120925 -0.134819,0.148955 -0.175265,0.369165 -0.08475,0.563271 l 2.994133,6.419763 c 0.120674,0.258816 0.426426,0.370277 0.685229,0.249597 l 0.536403,-0.250113 c 0.258804,-0.120684 0.369763,-0.425905 0.249078,-0.684712 L 44.85101,30.819826 C 44.7605,30.625715 44.566004,30.514637 44.365251,30.52217 Z"
     style="color:#000000;font-style:normal;font-variant:normal;font-weight:normal;font-stretch:normal;font-size:medium;line-height:normal;font-family:sans-serif;font-variant-ligatures:normal;font-variant-position:normal;font-variant-caps:normal;font-variant-numeric:normal;font-variant-alternates:normal;font-variant-east-asian:normal;font-feature-settings:normal;font-variation-settings:normal;text-indent:0;text-align:start;text-decoration:none;text-decoration-line:none;text-decoration-style:solid;text-decoration-color:#000000;letter-spacing:normal;word-spacing:normal;text-transform:none;writing-mode:lr-tb;direction:ltr;text-orientation:mixed;dominant-baseline:auto;baseline-shift:baseline;text-anchor:start;white-space:normal;shape-padding:0;shape-margin:0;inline-size:0;clip-rule:nonzero;display:inline;overflow:visible;visibility:visible;opacity:1;isolation:auto;mix-blend-mode:normal;color-interpolation:sRGB;color-interpolation-filters:linearRGB;solid-color:#000000;solid-opacity:1;vector-effect:none;fill:#000000;fill-opacity:1;fill-rule:nonzero;stroke:none;stroke-width:4.86336;stroke-linecap:butt;stroke-linejoin:miter;stroke-miterlimit:4;stroke-dasharray:none;stroke-dashoffset:0;stroke-opacity:1;color-rendering:auto;image-rendering:auto;shape-rendering:auto;text-rendering:auto;enable-background:accumulate;stop-color:#000000;stop-opacity:1"
     id="path1255" />
</svg>
