<?xml version="1.0" encoding="UTF-8" standalone="no"?>
<svg
   xmlns:dc="http://purl.org/dc/elements/1.1/"
   xmlns:cc="http://creativecommons.org/ns#"
   xmlns:rdf="http://www.w3.org/1999/02/22-rdf-syntax-ns#"
   xmlns:svg="http://www.w3.org/2000/svg"
   xmlns="http://www.w3.org/2000/svg"
   xmlns:sodipodi="http://sodipodi.sourceforge.net/DTD/sodipodi-0.dtd"
   xmlns:inkscape="http://www.inkscape.org/namespaces/inkscape"
   id="svg1083"
   version="1.1"
   viewBox="0 0 63.499999 63.500002"
   height="240"
   width="240"
   sodipodi:docname="Scripts.svg"
   inkscape:version="1.0 (4035a4fb49, 2020-05-01)">
  <sodipodi:namedview
     inkscape:document-rotation="0"
     pagecolor="#ffffff"
     bordercolor="#666666"
     borderopacity="1"
     objecttolerance="10"
     gridtolerance="10"
     guidetolerance="10"
     inkscape:pageopacity="0"
     inkscape:pageshadow="2"
     inkscape:window-width="1920"
     inkscape:window-height="1017"
     id="namedview12"
     showgrid="false"
     inkscape:zoom="2.5043365"
     inkscape:cx="107.48588"
     inkscape:cy="116.25746"
     inkscape:window-x="-8"
     inkscape:window-y="0"
     inkscape:window-maximized="1"
     inkscape:current-layer="svg1083" />
  <title
     id="title1901">Script file Icon</title>
  <defs
     id="defs1077" />
  <metadata
     id="metadata1080">
    <rdf:RDF>
      <cc:Work
         rdf:about="">
        <dc:format>image/svg+xml</dc:format>
        <dc:type
           rdf:resource="http://purl.org/dc/dcmitype/StillImage" />
        <dc:title>Script file Icon</dc:title>
      </cc:Work>
    </rdf:RDF>
  </metadata>
  <path
     d="m 13.229166,5.2916668 c -1.46579,0 -2.645833,1.1800414 -2.645833,2.6458334 V 55.562501 c 0,1.465791 1.180043,2.645833 2.645833,2.645833 h 37.041667 c 1.465789,0 2.645834,-1.180042 2.645834,-2.645833 V 21.166667 L 37.041667,5.2916668 Z M 34.395833,10.583333 47.625,23.8125 H 37.041667 c -2.645834,-1e-6 -2.645834,0 -2.645834,-2.645833 z M 22.473047,37.041667 a 7.9375768,7.9375768 0 0 1 0.01654,0 7.9375768,7.9375768 0 0 1 1.077971,0.07338 l 0.777213,2.185397 a 5.9740668,5.9740668 0 0 1 0.848527,0.351399 l 2.094447,-0.995805 a 7.9375768,7.9375768 0 0 1 1.524971,1.524455 l -0.995804,2.095479 a 5.9740668,5.9740668 0 0 1 0.351398,0.848011 l 2.185398,0.777214 a 7.9375768,7.9375768 0 0 1 0.031,0.262001 c -0.227793,0.143007 -0.395927,0.356653 -0.429429,0.67851 -0.119959,0.451895 -0.203679,0.846262 -0.676444,0.363802 -0.599811,-0.4582 -1.350195,-0.1662 -1.790589,0.359151 -0.416507,0.431282 -0.97445,0.918467 -1.132748,1.457793 0.139333,0.449416 0.409777,0.836764 0.599446,1.262455 -0.730345,0.12225 -1.62506,0.53019 -1.525488,1.419553 -0.02492,0.234807 -0.02634,0.469868 -0.01964,0.704866 l -0.217041,-0.102836 a 5.9740668,5.9740668 0 0 1 -0.84801,0.351398 l -0.777214,2.185398 a 7.9375768,7.9375768 0 0 1 -1.07797,0.07338 7.9375768,7.9375768 0 0 1 -1.07797,-0.0739 L 20.634399,50.65789 a 5.9740668,5.9740668 0 0 1 -0.848527,-0.351398 l -2.094446,0.995804 a 7.9375768,7.9375768 0 0 1 -1.524971,-1.524455 l 0.995804,-2.095479 a 5.9740668,5.9740668 0 0 1 -0.351399,-0.84801 l -2.185396,-0.777214 a 7.9375768,7.9375768 0 0 1 -0.07338,-1.077971 7.9375768,7.9375768 0 0 1 0.07338,-1.07797 l 2.185396,-0.777214 a 5.9740668,5.9740668 0 0 1 0.351399,-0.848527 l -0.995804,-2.094963 a 7.9375768,7.9375768 0 0 1 1.524454,-1.524455 l 2.09548,0.995805 a 5.9740668,5.9740668 0 0 1 0.84801,-0.351399 l 0.777214,-2.185397 a 7.9375768,7.9375768 0 0 1 1.061434,-0.07338 z m 0.0067,4.267441 a 3.6699682,3.6699682 0 0 0 -3.660224,3.670059 3.6699682,3.6699682 0 0 0 3.67006,3.67006 3.6699682,3.6699682 0 0 0 3.669544,-3.67006 3.6699682,3.6699682 0 0 0 -3.669544,-3.670059 3.6699682,3.6699682 0 0 0 -0.0098,0 z m 9.259383,3.670059 a 5.2917191,5.2917191 0 0 1 0.01085,0 5.2917191,5.2917191 0 0 1 0.71882,0.04909 l 0.517797,1.456759 a 3.9827124,3.9827124 0 0 1 0.565857,0.234092 l 1.396296,-0.663524 a 5.2917191,5.2917191 0 0 1 1.016476,1.016476 l -0.664041,1.396296 a 3.9827124,3.9827124 0 0 1 0.234609,0.565856 l 1.456759,0.517798 a 5.2917191,5.2917191 0 0 1 0.0491,0.71882 5.2917191,5.2917191 0 0 1 -0.04909,0.71882 l -1.456759,0.517798 a 3.9827124,3.9827124 0 0 1 -0.234092,0.565856 l 0.663524,1.396296 a 5.2917191,5.2917191 0 0 1 -1.016476,1.016476 l -1.396296,-0.66404 a 3.9827124,3.9827124 0 0 1 -0.565857,0.234608 l -0.517797,1.456759 a 5.2917191,5.2917191 0 0 1 -0.71882,0.04909 5.2917191,5.2917191 0 0 1 -0.71882,-0.04909 l -0.517798,-1.456759 a 3.9827124,3.9827124 0 0 1 -0.565856,-0.234092 l -1.396296,0.663524 a 5.2917191,5.2917191 0 0 1 -1.016467,-1.016472 l 0.664041,-1.396296 a 3.9827124,3.9827124 0 0 1 -0.234609,-0.565856 l -1.456758,-0.517798 a 5.2917191,5.2917191 0 0 1 -0.04909,-0.71882 5.2917191,5.2917191 0 0 1 0.04909,-0.71882 l 1.456758,-0.517798 a 3.9827124,3.9827124 0 0 1 0.234093,-0.565856 l -0.663525,-1.396296 a 5.2917191,5.2917191 0 0 1 1.016477,-1.016476 l 1.396296,0.66404 a 3.9827124,3.9827124 0 0 1 0.565856,-0.234608 l 0.517798,-1.456759 a 5.2917191,5.2917191 0 0 1 0.707967,-0.04909 z m 0.0041,2.844787 a 2.4466463,2.4466463 0 0 0 -2.440154,2.44688 2.4466463,2.4466463 0 0 0 2.44688,2.44688 2.4466463,2.4466463 0 0 0 2.446361,-2.44688 2.4466463,2.4466463 0 0 0 -2.446361,-2.44688 2.4466463,2.4466463 0 0 0 -0.0062,0 z"
     style="display:inline;fill:#000000;fill-opacity:1;stroke-width:7.15563"
     id="rect1256" />
</svg>
